<?xml version="1.0" standalone="no"?>
<!DOCTYPE svg PUBLIC "-//W3C//DTD SVG 20010904//EN"
 "http://www.w3.org/TR/2001/REC-SVG-20010904/DTD/svg10.dtd">
<svg version="1.0" xmlns="http://www.w3.org/2000/svg"
 width="1600.000000pt" height="1600.000000pt" viewBox="0 0 1600.000000 1600.000000"
 preserveAspectRatio="xMidYMid meet">
<metadata>
Created by potrace 1.14, written by Peter Selinger 2001-2017
</metadata>
<g transform="translate(0.000000,1600.000000) scale(0.100000,-0.100000)"
fill="#000000" stroke="none">
<path d="M9680 12858 c-19 -5 -58 -11 -86 -13 -94 -5 -150 -69 -141 -160 22
-209 52 -345 76 -345 6 0 11 -22 11 -50 0 -27 5 -50 10 -50 6 0 10 -15 10 -33
0 -18 6 -39 13 -45 6 -7 13 -23 14 -35 5 -65 18 -114 34 -132 11 -13 16 -29
13 -42 -3 -11 3 -39 14 -62 11 -22 18 -51 15 -62 -4 -14 0 -25 11 -31 11 -6
14 -14 8 -21 -19 -24 -23 -74 -9 -108 22 -52 37 -103 37 -127 0 -11 5 -24 10
-27 6 -4 8 -15 5 -25 -3 -11 0 -20 11 -24 13 -5 15 -15 10 -54 -4 -28 0 -78 9
-127 18 -91 18 -87 17 -220 0 -55 0 -170 1 -255 0 -85 -5 -202 -12 -260 -7
-58 -14 -121 -15 -140 -1 -33 1 -35 34 -38 19 -1 42 -5 50 -9 26 -10 84 -2 96
13 7 8 15 54 19 102 4 48 12 93 17 100 7 8 8 44 3 105 -4 51 -8 109 -7 130 0
20 -3 37 -7 37 -13 0 0 135 15 146 17 14 8 24 -25 25 -21 1 -19 3 9 8 19 3 35
12 34 19 -1 6 -2 33 -2 58 -2 37 -6 47 -23 51 -14 4 -18 11 -13 22 16 40 15
48 -8 55 l-23 6 22 18 c24 18 22 40 -7 120 -7 18 -10 48 -7 66 3 19 2 38 -3
42 -5 5 -10 27 -12 49 -3 29 -10 43 -25 50 -16 7 -21 15 -17 31 4 15 -2 30
-18 45 -35 36 -46 69 -35 109 12 45 10 109 -4 126 -6 8 -9 23 -6 34 3 13 -1
24 -14 30 -14 8 -19 22 -19 49 0 23 -6 44 -16 52 -13 10 -14 24 -9 67 5 44 4
56 -10 66 -10 7 -19 27 -21 45 -2 18 -11 53 -19 77 -19 55 -19 73 -1 80 15 6
10 44 -6 44 -5 0 -7 16 -4 36 5 27 1 42 -14 61 -14 18 -20 41 -20 74 0 60 7
79 30 79 11 0 22 5 25 10 4 6 22 10 40 8 19 -1 32 -5 29 -9 -5 -8 52 -30 60
-22 2 3 17 -4 33 -14 15 -11 33 -19 38 -17 6 2 30 -14 55 -36 41 -36 80 -54
65 -30 -10 16 11 12 25 -5 7 -8 22 -15 34 -16 20 0 20 -1 2 -8 -14 -5 -16 -10
-7 -15 7 -5 15 -6 18 -3 3 3 18 -8 34 -24 27 -27 43 -33 80 -30 17 2 189 -178
189 -198 0 -6 9 -11 20 -11 11 0 20 -6 20 -14 0 -8 22 -38 50 -66 45 -47 64
-80 59 -106 -5 -27 1 -34 20 -22 17 10 26 4 77 -51 33 -35 69 -73 82 -84 12
-11 22 -28 22 -38 0 -10 5 -19 11 -21 5 -2 11 -11 12 -20 2 -9 9 -23 16 -32
10 -12 11 -19 2 -29 -15 -19 -3 -29 20 -17 12 7 20 7 24 0 3 -5 3 -10 -1 -10
-4 0 1 -8 10 -19 9 -10 16 -22 15 -27 -4 -25 2 -54 11 -49 5 3 10 -4 10 -17 0
-49 4 -60 27 -69 15 -6 23 -17 23 -33 0 -27 34 -54 45 -36 3 5 13 6 22 3 15
-6 14 -7 -3 -13 -10 -4 -19 -11 -20 -16 0 -5 -4 -17 -9 -28 -6 -14 -2 -23 13
-35 15 -11 20 -23 16 -38 -4 -14 -2 -23 5 -23 6 0 11 -4 11 -9 0 -4 16 -25 35
-45 19 -21 35 -44 35 -52 0 -8 5 -14 10 -14 6 0 10 -9 10 -19 0 -11 5 -23 10
-26 6 -4 8 -16 5 -26 -8 -24 11 -50 31 -42 10 4 14 -4 14 -30 0 -34 34 -92 49
-83 4 3 5 -8 3 -25 -3 -22 0 -29 12 -29 10 0 16 -8 16 -21 0 -11 10 -30 23
-40 l22 -20 -22 6 c-27 7 -32 -15 -8 -35 8 -7 15 -27 15 -44 0 -19 9 -41 23
-56 23 -24 52 -90 40 -90 -3 0 1 -8 8 -17 12 -15 12 -16 -6 -10 -19 7 -19 6
-1 -7 10 -8 15 -20 11 -25 -3 -6 1 -14 9 -17 9 -3 14 -9 11 -14 -2 -4 4 -16
14 -27 10 -11 22 -29 25 -41 4 -12 14 -22 22 -22 8 0 14 -7 14 -15 0 -20 73
-149 110 -192 5 -7 10 -19 10 -27 0 -8 5 -18 11 -22 6 -3 9 -15 6 -25 -3 -11
-1 -19 5 -19 5 0 6 -4 3 -10 -3 -5 2 -10 11 -10 14 0 15 -3 7 -11 -9 -9 -8
-19 3 -40 8 -16 17 -29 20 -29 3 0 2 5 -2 12 -4 7 -3 8 4 4 7 -4 12 -11 12
-17 0 -27 37 -89 55 -91 11 -2 19 -9 18 -16 -2 -6 5 -21 15 -31 57 -64 74 -81
83 -81 6 0 8 -4 5 -9 -9 -13 24 -71 40 -71 8 0 14 -7 14 -15 0 -9 12 -33 26
-55 21 -31 33 -40 55 -40 32 0 39 -14 12 -25 -16 -6 -16 -8 3 -23 12 -9 29
-30 37 -47 9 -16 27 -39 42 -49 15 -11 38 -39 51 -62 14 -23 52 -67 84 -97 33
-30 60 -59 60 -65 0 -6 9 -17 20 -25 11 -8 17 -17 13 -21 -4 -4 3 -9 15 -13
12 -3 22 -12 22 -20 0 -8 9 -17 20 -20 11 -3 20 -13 20 -23 0 -9 34 -52 75
-94 41 -42 75 -81 75 -86 0 -6 9 -10 21 -10 14 0 19 -5 17 -17 -3 -14 42 -73
56 -73 3 0 21 -17 41 -37 76 -82 89 -93 99 -93 13 0 56 -44 56 -57 0 -5 15
-17 34 -26 19 -9 37 -25 41 -36 4 -12 12 -18 21 -14 10 4 14 -2 14 -21 0 -19
5 -26 20 -26 11 0 20 -6 20 -13 0 -17 86 -97 105 -97 9 0 13 -5 10 -10 -5 -9
48 -70 61 -70 2 0 14 -10 27 -22 13 -13 46 -42 73 -66 27 -24 60 -54 74 -66
14 -13 37 -31 53 -41 15 -9 27 -22 27 -28 0 -5 16 -25 35 -44 19 -19 35 -38
35 -43 0 -6 3 -10 8 -10 4 0 19 -11 33 -24 14 -13 35 -28 47 -35 12 -6 21 -15
19 -20 -3 -13 60 -71 78 -71 9 0 12 -6 9 -15 -5 -11 1 -15 20 -15 20 0 26 -5
26 -21 0 -12 8 -23 20 -26 13 -3 20 -14 20 -28 0 -23 17 -35 51 -35 14 0 19
-7 19 -29 0 -16 6 -31 15 -35 8 -3 15 -10 15 -17 0 -6 22 -35 49 -65 26 -30
59 -77 72 -104 13 -27 30 -49 37 -50 8 0 16 -9 19 -20 3 -11 9 -20 13 -20 13
0 50 -70 50 -94 0 -13 7 -30 16 -37 9 -7 31 -37 50 -66 19 -29 38 -53 44 -53
5 0 10 -11 10 -23 0 -13 9 -32 19 -41 11 -10 27 -33 36 -52 9 -19 20 -34 26
-34 6 0 7 -5 4 -11 -4 -6 3 -13 14 -16 15 -4 20 -11 16 -24 -4 -11 2 -26 14
-38 12 -12 21 -27 21 -35 0 -7 7 -19 15 -26 8 -7 15 -18 15 -25 0 -7 7 -16 16
-19 8 -3 13 -10 9 -15 -3 -6 4 -15 15 -21 11 -6 20 -17 20 -25 0 -8 7 -15 15
-15 8 0 15 -9 15 -20 0 -29 33 -89 53 -96 11 -3 16 -12 12 -23 -3 -11 6 -27
25 -46 16 -15 27 -32 24 -36 -2 -4 0 -10 6 -14 5 -3 18 -26 29 -51 11 -24 27
-47 35 -50 9 -3 16 -16 16 -29 0 -13 6 -25 13 -28 6 -2 18 -25 26 -51 7 -25
16 -46 20 -46 11 0 41 -57 41 -78 0 -11 6 -22 14 -25 8 -3 20 -24 27 -46 7
-23 18 -41 25 -41 7 0 12 -8 11 -18 -1 -17 12 -48 47 -110 7 -12 26 -35 43
-50 17 -16 30 -39 31 -55 2 -26 27 -86 41 -97 9 -7 58 -110 66 -138 4 -15 17
-25 37 -29 24 -5 27 -8 14 -15 -22 -12 -20 -28 8 -61 13 -15 29 -41 36 -57 7
-17 16 -30 21 -30 5 0 9 -9 9 -19 0 -11 5 -23 10 -26 6 -4 10 -14 8 -23 -1
-10 2 -24 7 -32 21 -31 34 -56 44 -77 6 -13 17 -23 26 -23 8 0 15 -8 15 -19 0
-25 23 -42 59 -43 35 -1 65 25 57 49 -3 10 -1 25 4 33 6 10 4 20 -7 33 -15 16
-15 19 0 35 10 9 27 17 40 17 36 0 27 30 -10 33 -19 2 -33 -1 -33 -7 0 -6 -7
-11 -15 -11 -22 0 -18 21 5 27 35 9 24 33 -16 33 -21 0 -33 4 -29 10 3 5 15
10 25 10 10 0 22 5 26 11 4 7 -7 10 -36 7 -52 -4 -69 19 -22 28 60 12 44 64
-26 86 -40 12 -56 28 -29 28 7 1 6 5 -5 13 -15 12 -15 14 3 25 25 16 24 38 -1
45 -12 3 -20 14 -20 25 0 15 -8 22 -27 24 -26 3 -46 28 -23 28 6 0 17 6 25 13
11 11 3 13 -44 11 -49 -2 -53 -1 -28 9 29 12 31 33 3 31 -18 -2 -22 12 -4 18
16 6 -20 58 -39 58 -11 0 -14 8 -11 30 3 17 1 33 -4 36 -4 3 -8 14 -8 25 0 10
-6 19 -13 19 -17 0 -39 37 -27 45 16 10 1 25 -26 25 -24 0 -32 14 -15 24 18
11 -19 126 -40 126 -6 0 -7 4 -4 10 3 5 0 7 -8 4 -8 -3 -28 8 -44 25 l-30 30
18 31 c16 25 17 32 5 36 -8 3 -12 13 -9 25 4 13 0 19 -12 19 -11 0 -15 5 -11
15 3 8 1 15 -4 15 -6 0 -10 -4 -10 -10 0 -5 -16 -10 -35 -10 -19 0 -35 5 -35
10 0 6 8 10 19 10 14 0 18 6 16 28 -4 39 -16 72 -26 72 -5 0 -9 7 -9 15 0 8
-7 15 -16 15 -10 0 -14 6 -11 14 4 9 -3 16 -16 20 -17 4 -19 8 -9 18 6 6 12
21 12 31 0 15 -5 18 -25 15 -25 -5 -34 5 -15 17 15 9 -12 45 -34 45 -16 0 -17
3 -8 12 18 18 15 26 -15 30 -17 2 -27 10 -29 22 -1 11 -10 23 -18 28 -8 5 -18
30 -22 56 -8 59 -19 73 -52 66 -16 -3 -35 1 -46 9 -19 14 -17 15 22 22 56 9
56 33 0 42 -39 6 -40 7 -20 16 28 13 25 41 -6 45 -12 2 -22 8 -22 13 0 6 4 7
10 4 5 -3 7 0 4 9 -3 8 -12 12 -19 10 -10 -4 -12 1 -8 15 7 28 -33 62 -64 54
-14 -3 -23 -1 -23 6 0 6 9 11 20 11 24 0 27 18 4 27 -8 3 -13 12 -10 20 8 21
-23 28 -37 9 -8 -11 -19 -15 -30 -10 -26 9 -21 19 18 34 42 16 43 22 10 40
-13 7 -27 21 -31 32 -3 12 -15 18 -35 18 -18 0 -28 4 -24 10 3 6 3 16 -2 23
-4 6 -9 21 -10 32 -2 11 -11 27 -21 35 -10 8 -30 51 -43 95 -21 65 -28 79 -43
77 -15 -3 -18 1 -13 18 5 19 3 21 -21 16 -22 -5 -24 -4 -10 4 28 17 -9 76 -63
104 -14 7 -26 23 -29 41 -4 21 -11 29 -23 27 -10 -2 -17 4 -17 14 0 12 -6 15
-26 10 -25 -7 -26 -5 -21 20 4 22 -2 34 -30 61 -20 18 -40 30 -46 26 -5 -3 -8
0 -5 8 3 8 -5 18 -16 24 -12 6 -25 20 -31 33 -5 12 -13 22 -17 22 -5 0 -8 7
-8 15 0 9 -11 21 -25 27 -14 6 -25 17 -25 24 0 7 -9 18 -20 24 -11 6 -20 17
-20 25 0 10 -10 15 -31 15 -25 0 -29 3 -20 14 9 10 5 17 -15 32 -14 10 -30 29
-35 41 -10 26 -65 63 -92 63 -10 0 -17 6 -16 13 3 24 -1 37 -11 37 -6 0 -26
14 -44 32 -24 22 -44 32 -67 32 -28 1 -35 5 -37 26 -4 23 -36 60 -53 60 -5 0
-6 7 -3 15 4 11 0 15 -16 15 -16 0 -20 4 -16 15 4 11 -3 19 -19 25 -14 5 -25
14 -25 20 0 5 -23 10 -51 10 -57 0 -66 23 -11 28 28 3 30 5 18 18 -8 8 -29 14
-47 14 -27 0 -30 2 -19 15 10 12 10 15 -3 15 -9 0 -21 8 -26 18 -7 14 -19 17
-48 14 l-38 -3 25 20 25 20 -29 26 c-19 17 -35 24 -49 20 -12 -2 -16 -2 -9 1
18 8 15 37 -3 30 -9 -3 -15 0 -15 9 0 8 -8 15 -17 15 -10 0 -25 5 -33 10 -13
9 -13 12 3 24 15 11 15 15 3 19 -8 3 -31 3 -50 0 -40 -6 -49 9 -16 27 39 21
26 31 -53 45 -30 5 -36 9 -28 19 12 14 5 46 -10 46 -5 0 -9 6 -9 14 0 18 -55
65 -97 83 -39 16 -42 22 -8 15 15 -2 25 0 25 7 0 6 -9 11 -20 11 -11 0 -20 7
-20 15 0 26 -40 57 -66 52 -23 -4 -24 -2 -18 30 5 28 3 37 -15 49 -12 9 -28
28 -36 44 -8 16 -24 31 -35 35 -11 3 -20 13 -20 22 0 13 -2 14 -17 2 -9 -8
-14 -9 -10 -3 3 6 -4 26 -17 45 -13 19 -26 44 -30 57 -4 12 -12 20 -17 16 -6
-3 -9 2 -7 12 2 12 -2 18 -10 16 -8 -1 -11 2 -8 7 8 13 -23 43 -36 35 -6 -4
-8 -3 -5 3 3 5 -3 16 -14 23 -10 8 -19 20 -19 27 0 7 -5 12 -12 10 -7 -1 -12
5 -13 13 0 8 -11 20 -25 27 -14 7 -19 13 -11 13 19 0 -14 37 -40 45 -10 3 -16
12 -13 20 3 7 -3 16 -15 20 -12 3 -21 13 -21 21 0 8 -4 14 -10 14 -5 0 -10 7
-10 16 0 10 -5 14 -16 10 -8 -3 -13 -2 -10 3 3 5 -6 16 -20 25 -19 13 -23 22
-18 38 5 17 3 20 -10 15 -13 -5 -15 -1 -12 17 3 14 -3 32 -13 43 -9 10 -24 33
-32 51 -9 22 -23 35 -40 39 -20 4 -29 13 -34 37 -4 17 -9 34 -10 39 -1 4 -3
11 -4 17 0 5 -8 7 -16 4 -9 -4 -15 0 -15 10 0 9 -6 13 -15 10 -9 -4 -16 3 -21
20 -3 14 -13 26 -21 26 -8 0 -12 -4 -9 -9 3 -4 -4 -17 -17 -27 l-22 -19 19 23
c11 12 16 22 11 22 -4 0 -3 6 1 13 14 18 10 52 -5 49 -7 -1 -10 2 -7 7 4 5 2
12 -4 16 -5 3 -10 15 -10 25 0 10 -8 25 -17 32 -27 20 -44 55 -36 74 4 10 2
15 -3 12 -5 -4 -18 0 -29 8 -10 8 -13 14 -7 14 15 0 16 35 1 61 -8 16 -13 18
-25 8 -8 -6 -14 -8 -15 -3 -1 5 -2 18 -3 29 0 10 -12 25 -26 32 -14 7 -19 13
-12 13 7 0 12 13 12 30 0 17 -6 40 -12 51 -10 17 -10 23 -1 26 16 6 -36 113
-54 113 -7 0 -13 5 -13 11 0 5 5 7 11 3 8 -4 9 1 4 17 -4 13 -12 27 -18 31 -6
3 -11 19 -12 35 -1 40 -13 70 -30 77 -8 3 -15 11 -15 18 0 9 3 8 10 -2 6 -9
10 -10 10 -3 0 6 -5 15 -10 18 -6 4 -7 11 -4 17 4 6 2 8 -3 5 -9 -6 -28 45
-24 66 1 4 -5 10 -13 13 -8 3 -12 12 -9 20 3 8 -2 21 -12 28 -9 6 -18 24 -18
39 -1 15 -5 27 -9 27 -4 0 -5 7 -2 15 8 19 -43 94 -71 105 -11 5 -15 9 -8 9
13 1 5 41 -8 41 -5 0 -9 7 -9 15 0 8 -5 15 -11 15 -5 0 -7 5 -4 10 3 6 1 10
-6 10 -7 0 -10 3 -6 6 9 10 -22 66 -33 59 -6 -3 -7 1 -4 9 4 9 -10 31 -35 57
-22 23 -38 46 -34 52 3 5 1 12 -4 16 -6 3 -25 32 -43 64 -18 32 -39 61 -46 64
-8 3 -14 18 -14 33 0 37 -9 60 -24 60 -23 0 -66 55 -66 84 0 19 -6 29 -19 33
-11 3 -21 17 -25 35 -5 26 -9 29 -30 24 -19 -5 -25 -1 -29 15 -4 15 -11 20
-21 16 -12 -5 -16 0 -16 22 0 16 -3 31 -7 33 -5 2 -21 20 -36 41 -16 21 -40
42 -53 47 -14 6 -27 18 -31 27 -6 19 -18 32 -106 121 -34 35 -58 51 -70 48
-10 -2 -21 3 -27 15 -6 10 -20 19 -31 19 -12 0 -42 22 -69 49 -55 56 -78 71
-112 71 -18 0 -20 2 -8 10 12 8 11 10 -7 10 -17 0 -21 4 -16 17 4 11 3 14 -5
9 -7 -4 -12 -3 -12 1 0 5 -10 9 -22 10 -12 1 -31 13 -42 26 -27 31 -61 44 -52
21 5 -14 4 -15 -9 -4 -10 8 -15 9 -15 1 0 -15 -20 -14 -20 2 0 6 -8 21 -17 32
-14 18 -15 18 -9 2 4 -13 2 -17 -6 -15 -7 3 -13 10 -13 17 0 19 -22 27 -67 25
-24 -1 -46 3 -49 8 -9 15 -77 18 -119 6z m-115 -66 c-3 -3 -11 0 -18 7 -9 10
-8 11 6 5 10 -3 15 -9 12 -12z m471 -41 c-3 -5 -15 -7 -26 -4 -28 7 -25 13 6
13 14 0 23 -4 20 -9z m154 -251 c0 -5 -5 -10 -11 -10 -5 0 -7 5 -4 10 3 6 8
10 11 10 2 0 4 -4 4 -10z m-447 -860 c-3 -11 -9 -20 -14 -20 -10 0 -12 33 -3
43 12 12 22 -3 17 -23z m1471 -248 c3 -5 -1 -9 -9 -9 -8 0 -12 4 -9 9 3 4 7 8
9 8 2 0 6 -4 9 -8z m-1344 -231 c0 -12 -28 -22 -34 -12 -3 5 -3 11 1 15 9 9
33 7 33 -3z m1840 -1113 c0 -4 -4 -8 -9 -8 -6 0 -12 4 -15 8 -3 5 1 9 9 9 8 0
15 -4 15 -9z m1106 -1154 c-4 -9 -9 -15 -11 -12 -3 3 -3 13 1 22 4 9 9 15 11
12 3 -3 3 -13 -1 -22z m639 -564 c3 -5 2 -10 -4 -10 -5 0 -13 5 -16 10 -3 6
-2 10 4 10 5 0 13 -4 16 -10z m1185 -1580 c0 -5 -4 -10 -10 -10 -5 0 -10 5
-10 10 0 6 5 10 10 10 6 0 10 -4 10 -10z m713 -1241 c-7 -7 -19 -8 -30 -4 -16
7 -15 9 7 15 30 8 38 4 23 -11z"/>
<path d="M8475 11850 c-3 -5 -18 -10 -33 -10 -47 -1 -135 -64 -127 -91 4 -10
-1 -31 -9 -46 -10 -20 -11 -34 -4 -46 5 -10 11 -32 14 -50 2 -18 13 -38 24
-46 11 -7 20 -22 20 -32 0 -10 9 -33 19 -50 11 -17 17 -38 14 -45 -3 -8 0 -14
6 -14 6 0 11 -9 11 -20 0 -11 7 -23 15 -26 8 -4 15 -14 15 -24 0 -10 9 -24 21
-31 13 -9 21 -25 21 -46 1 -22 6 -33 16 -33 14 0 41 -27 42 -42 0 -3 -9 -4
-20 -1 -11 3 -20 1 -20 -4 0 -15 38 -46 48 -39 6 3 13 -2 16 -11 4 -9 2 -20
-5 -23 -8 -6 -8 -9 1 -15 6 -4 9 -13 6 -20 -3 -8 2 -29 12 -47 11 -23 15 -53
13 -97 -3 -68 24 -155 40 -129 6 9 10 8 15 -6 4 -10 3 -21 -3 -25 -13 -9 -9
-87 7 -116 10 -19 19 -23 39 -19 l26 5 -24 -20 c-19 -17 -21 -24 -11 -36 15
-18 4 -36 -18 -28 -10 4 -5 -5 12 -21 18 -18 26 -34 23 -46 -3 -11 -1 -22 3
-25 4 -3 15 -25 23 -49 13 -39 13 -45 -1 -59 -14 -15 -13 -17 12 -27 23 -8 26
-13 16 -25 -9 -11 -9 -26 0 -67 7 -29 16 -61 21 -71 6 -11 5 -32 -3 -58 -10
-35 -15 -40 -35 -36 -16 3 -36 -5 -60 -25 -23 -18 -39 -25 -43 -18 -4 7 -18 8
-33 4 -32 -7 -36 -25 -6 -21 12 1 24 -3 26 -9 3 -8 -13 -8 -54 -2 -47 8 -69 6
-113 -8 -30 -10 -63 -24 -72 -32 -9 -8 -21 -11 -27 -8 -5 4 -18 -2 -28 -13
-14 -15 -39 -22 -103 -28 -80 -8 -85 -9 -82 -30 4 -26 -9 -29 -38 -11 -15 10
-27 9 -57 -2 -21 -7 -60 -18 -88 -22 -27 -5 -65 -11 -82 -15 -18 -3 -33 -9
-33 -13 0 -4 -22 -17 -50 -29 -27 -12 -50 -26 -50 -31 0 -6 -22 -10 -50 -10
-39 0 -50 -3 -50 -16 0 -10 -6 -14 -14 -11 -8 3 -17 0 -20 -8 -3 -8 -13 -11
-25 -8 -13 3 -24 -3 -36 -21 -13 -20 -21 -24 -35 -16 -20 11 -50 -6 -53 -30
-5 -28 -24 -53 -31 -41 -11 16 -66 14 -66 -3 0 -9 -7 -12 -18 -9 -13 3 -26 -7
-45 -36 -15 -22 -27 -48 -27 -57 0 -14 -2 -14 -16 -3 -13 11 -17 10 -25 -4 -6
-9 -17 -17 -24 -17 -8 0 -15 -5 -15 -11 0 -6 -18 -28 -40 -49 -22 -21 -40 -35
-40 -32 0 2 -10 -8 -21 -23 -18 -22 -20 -29 -8 -36 12 -8 12 -10 -1 -8 -29 3
-40 -1 -40 -16 0 -8 -7 -15 -15 -15 -8 0 -15 -6 -15 -14 0 -8 -10 -22 -22 -30
-12 -9 -17 -16 -9 -16 7 0 -3 -14 -23 -32 -39 -34 -46 -50 -18 -42 9 3 5 -2
-10 -11 -27 -15 -40 -32 -15 -20 6 4 3 -1 -8 -10 -11 -9 -19 -18 -17 -21 2 -3
-10 -21 -27 -41 -16 -19 -33 -48 -36 -64 -4 -16 -11 -29 -16 -29 -5 0 -8 -3
-8 -7 5 -29 -4 -56 -26 -77 -14 -14 -25 -30 -25 -37 0 -6 -9 -24 -20 -39 -19
-27 -20 -29 -3 -39 16 -9 16 -10 -4 -11 -21 0 -23 -5 -23 -54 0 -39 -4 -55
-15 -60 -13 -5 -36 -45 -39 -68 -1 -3 -4 -10 -8 -14 -5 -4 -8 -16 -8 -26 0
-10 -9 -23 -20 -30 -11 -7 -20 -22 -20 -34 0 -12 -7 -27 -15 -34 -9 -7 -13
-20 -10 -27 3 -8 -4 -26 -15 -40 -11 -14 -22 -41 -26 -62 -4 -20 -12 -39 -18
-43 -6 -4 -11 -13 -11 -20 -1 -18 -15 -69 -25 -93 -13 -28 -16 -68 -7 -82 5
-9 3 -13 -8 -13 -8 0 -19 -10 -24 -22 -5 -13 -15 -38 -23 -55 -7 -18 -16 -33
-20 -33 -5 0 -8 -7 -8 -15 0 -9 -7 -26 -15 -38 -8 -13 -16 -39 -18 -58 -3 -19
-10 -35 -18 -37 -15 -3 -38 -59 -44 -105 -2 -15 -9 -38 -17 -50 -8 -12 -20
-41 -26 -64 -7 -24 -29 -73 -49 -110 -20 -38 -47 -89 -61 -115 -14 -27 -29
-48 -33 -48 -12 0 -59 -76 -59 -96 0 -9 -9 -18 -20 -21 -11 -3 -20 -12 -20
-19 0 -8 -7 -17 -15 -20 -8 -4 -15 -11 -15 -17 0 -15 -63 -96 -76 -97 -6 0
-25 -18 -43 -40 -19 -24 -52 -48 -81 -61 -36 -15 -50 -27 -50 -41 0 -15 -5
-18 -20 -13 -13 4 -20 2 -20 -7 0 -7 -13 -19 -30 -26 -16 -8 -30 -20 -30 -27
0 -8 -15 -17 -35 -21 -35 -6 -44 -17 -25 -29 6 -4 8 -10 5 -15 -4 -6 -14 -4
-25 2 -16 11 -24 8 -47 -14 -15 -14 -33 -24 -39 -21 -12 4 -111 -57 -112 -70
0 -5 -4 -12 -8 -15 -4 -4 -4 -2 0 5 10 19 -16 28 -29 10 -7 -9 -15 -14 -18
-10 -4 3 -13 0 -22 -7 -8 -7 -22 -9 -31 -6 -10 4 -34 -7 -64 -29 -26 -19 -50
-32 -54 -28 -3 3 -6 1 -6 -5 0 -7 -13 -12 -29 -12 -20 0 -36 -9 -49 -25 -11
-14 -28 -25 -38 -25 -25 0 -49 -16 -49 -31 0 -7 -6 -14 -12 -16 -7 -3 -13 0
-13 6 0 6 -11 11 -25 11 -26 0 -35 -25 -12 -33 9 -4 9 -7 -1 -18 -11 -12 -16
-11 -28 5 -11 16 -17 17 -27 7 -10 -10 -8 -15 6 -26 20 -14 16 -19 -25 -29
-31 -7 -38 7 -10 23 15 9 15 10 0 11 -25 0 -48 -11 -48 -24 0 -6 -19 -12 -47
-13 -31 -1 -53 -8 -66 -22 l-21 -20 24 -9 24 -9 -22 -12 c-13 -7 -22 -21 -22
-35 0 -13 -7 -30 -16 -37 -15 -12 -16 -10 -9 20 7 31 5 33 -14 28 -26 -6 -37
9 -21 28 8 10 9 15 2 15 -6 0 -14 -5 -17 -11 -4 -6 -13 -8 -21 -5 -8 3 -14 -1
-14 -9 0 -8 5 -15 11 -15 5 0 8 -4 4 -9 -3 -5 5 -17 17 -25 12 -9 17 -16 11
-16 -6 0 -13 -9 -16 -21 -3 -12 -10 -18 -16 -14 -6 3 -21 8 -33 10 -12 3 -25
10 -29 16 -4 7 -19 9 -40 5 -19 -4 -43 -8 -55 -10 -29 -4 -45 -16 -38 -28 4
-6 2 -8 -4 -4 -5 3 -12 1 -14 -5 -3 -9 -9 -9 -26 0 -18 10 -22 9 -22 -4 0 -8
-7 -15 -16 -15 -13 0 -14 -3 -5 -14 9 -10 8 -15 -4 -20 -8 -3 -15 -2 -15 3 0
11 -31 19 -47 14 -7 -3 -13 -11 -13 -19 0 -16 -60 -49 -69 -37 -3 5 -22 6 -41
2 -22 -4 -27 -7 -12 -8 26 -1 31 -35 6 -45 -10 -4 -13 -13 -9 -27 5 -16 3 -20
-6 -17 -8 3 -13 12 -11 22 2 9 -2 16 -9 16 -9 0 -9 3 0 14 8 10 8 16 -3 25
-15 13 -26 -4 -26 -39 0 -10 -7 -21 -16 -24 -9 -3 -12 -11 -8 -18 6 -10 5 -10
-7 -1 -9 7 -20 8 -29 3 -8 -5 -18 -6 -22 -4 -16 10 -29 -7 -17 -22 10 -12 9
-13 -5 -8 -9 3 -16 12 -16 20 0 8 -9 14 -20 14 -11 0 -20 6 -20 13 0 9 -3 8
-9 -2 -5 -7 -14 -10 -20 -7 -7 5 -11 -1 -11 -13 0 -14 6 -21 20 -21 17 0 19
-3 11 -19 -6 -10 -7 -21 -4 -25 3 -3 -1 -6 -10 -6 -10 0 -14 5 -11 15 5 12 -2
14 -34 10 -39 -3 -94 -34 -118 -64 -9 -11 -14 -10 -27 9 -14 21 -19 22 -42 12
-14 -7 -33 -12 -41 -12 -8 0 -24 -9 -35 -19 -21 -20 -76 -25 -99 -11 -17 11
-53 -7 -44 -21 3 -6 -2 -9 -11 -7 -10 2 -20 -3 -23 -11 -3 -10 0 -12 12 -8 12
5 16 3 13 -5 -2 -8 -16 -12 -34 -10 -26 3 -32 -2 -47 -32 -18 -38 -36 -47 -36
-18 -1 15 -2 15 -15 -2 -20 -27 -19 -39 4 -31 12 3 21 0 25 -10 3 -9 2 -13 -4
-10 -14 9 -12 -8 3 -25 10 -12 9 -12 -6 0 -10 7 -16 19 -13 27 3 8 1 11 -4 8
-6 -3 -10 -12 -10 -19 0 -7 -7 -13 -15 -13 -11 0 -12 4 -5 11 14 14 13 26 -4
26 -7 0 -17 15 -20 33 -6 27 -8 29 -17 15 -5 -10 -9 -24 -7 -32 2 -8 -6 -22
-17 -30 -20 -15 -20 -15 -1 -16 16 0 17 -3 8 -12 -9 -9 -15 -8 -27 8 -8 10
-14 24 -15 29 0 6 5 3 10 -5 6 -9 10 -10 10 -3 0 7 -9 17 -20 23 -14 7 -20 7
-20 0 0 -5 -6 -9 -12 -8 -7 2 -12 -3 -10 -9 1 -8 -8 -13 -22 -13 -20 0 -23 -4
-18 -22 4 -18 2 -20 -16 -16 -26 7 -67 -28 -54 -45 5 -7 12 -20 15 -29 5 -15
3 -16 -18 -6 -14 6 -21 16 -18 24 3 9 -2 14 -18 14 -17 0 -20 -3 -12 -11 8 -8
6 -16 -9 -31 -19 -19 -19 -21 -2 -39 9 -10 20 -17 24 -14 4 2 7 -2 7 -10 0 -7
-13 -15 -28 -17 -21 -3 -29 0 -33 15 -4 15 0 18 15 14 18 -5 18 -4 -2 21 -18
23 -19 27 -5 30 28 6 17 22 -15 22 -26 0 -30 -3 -27 -22 2 -19 -3 -24 -32 -28
-32 -5 -33 -6 -15 -17 20 -11 16 -25 -8 -29 -7 -1 -28 -11 -46 -22 -23 -14
-29 -21 -17 -24 13 -2 11 -8 -10 -35 -14 -18 -34 -33 -45 -33 -20 0 -64 -73
-54 -90 3 -5 -1 -7 -9 -4 -19 7 -38 -27 -26 -46 10 -16 3 -53 -14 -85 -11 -18
-12 -65 -4 -133 2 -12 8 -26 14 -30 12 -8 28 -40 29 -60 1 -20 56 -73 68 -65
6 4 8 0 4 -10 -4 -10 1 -22 14 -30 11 -8 19 -19 17 -25 -2 -7 11 -23 27 -37
17 -15 24 -23 17 -20 -11 6 -12 3 -3 -14 11 -19 23 -25 43 -22 4 0 5 -6 1 -14
-6 -17 31 -55 54 -55 7 0 13 -7 13 -15 0 -8 -4 -15 -10 -15 -19 0 -10 -28 15
-44 14 -9 25 -12 25 -6 0 5 5 10 10 10 6 0 10 -5 10 -12 0 -23 33 -98 41 -93
4 3 10 -4 14 -15 3 -11 16 -25 27 -31 16 -9 19 -8 12 2 -4 7 7 3 24 -10 18
-12 30 -26 27 -30 -2 -5 7 -18 20 -31 13 -13 22 -26 20 -31 -3 -4 9 -18 27
-30 18 -13 35 -27 37 -32 9 -22 42 -46 56 -41 10 4 15 0 15 -11 0 -9 7 -24 16
-32 11 -12 12 -18 4 -23 -9 -6 -6 -14 9 -29 12 -12 26 -19 31 -16 5 3 11 1 15
-5 4 -6 11 -7 17 -4 7 4 8 2 4 -4 -4 -7 5 -24 21 -39 15 -14 23 -23 16 -20 -7
5 -9 0 -6 -13 5 -19 6 -20 19 -3 13 16 13 15 5 -8 -7 -19 -6 -26 4 -26 7 0 11
6 8 13 -3 7 2 11 13 10 9 -2 18 -10 20 -19 1 -10 -2 -15 -7 -11 -5 3 -9 2 -9
-3 0 -13 49 -32 56 -22 4 6 10 6 18 0 9 -7 16 -7 26 2 7 6 5 0 -4 -14 -15 -23
-15 -28 -1 -39 8 -7 15 -9 15 -4 0 4 10 -2 23 -14 14 -14 27 -18 33 -13 5 6
18 2 33 -10 13 -10 19 -19 14 -19 -5 0 -13 4 -18 9 -6 6 -11 -1 -12 -19 -2
-24 1 -28 17 -25 11 2 20 -1 20 -6 0 -6 5 -7 12 -3 7 4 8 3 4 -5 -4 -6 -11 -9
-15 -7 -4 3 -8 -1 -8 -9 0 -8 4 -12 8 -9 4 2 10 0 13 -4 3 -5 17 -7 31 -4 15
2 25 0 25 -7 0 -6 7 -11 16 -11 13 0 14 -3 5 -13 -17 -21 24 -61 49 -47 10 5
20 15 22 21 2 6 12 0 23 -12 11 -12 15 -19 9 -16 -21 12 -23 -21 -3 -46 10
-14 19 -30 19 -36 0 -6 6 -11 14 -11 8 0 17 -8 20 -18 11 -33 80 -49 118 -26
7 5 9 0 6 -14 -8 -31 27 -65 52 -52 11 6 20 17 20 25 0 21 27 7 33 -16 3 -11
15 -23 26 -26 15 -4 21 -14 21 -32 l1 -26 20 28 c25 33 42 36 30 4 -10 -25 2
-57 21 -57 6 0 19 7 29 16 16 14 20 14 43 -1 14 -10 23 -22 19 -31 -3 -9 1
-14 12 -14 13 0 16 -6 11 -25 -7 -28 7 -33 30 -10 21 21 37 19 31 -4 -3 -14 0
-17 14 -14 11 3 19 1 19 -5 0 -6 9 -14 21 -17 11 -4 24 -18 29 -31 8 -19 17
-24 44 -24 19 0 38 5 41 10 13 22 27 9 22 -20 -6 -28 -4 -30 45 -45 28 -8 60
-15 70 -15 10 0 18 -5 18 -11 0 -6 9 -9 20 -6 14 4 25 -2 36 -17 11 -17 28
-25 65 -29 32 -4 56 -13 65 -24 13 -17 13 -17 14 1 0 18 1 18 18 3 22 -20 48
-22 56 -4 3 6 3 0 0 -14 -4 -20 0 -30 21 -43 15 -10 33 -15 40 -12 17 6 28
-21 12 -28 -7 -4 5 -4 26 -2 48 6 67 -1 60 -22 -4 -14 -3 -14 5 -3 10 14 43 9
41 -6 -5 -28 3 -35 30 -30 16 3 33 1 40 -6 10 -9 15 -8 25 6 18 23 36 22 36
-3 0 -15 7 -20 25 -20 16 0 25 -6 25 -15 0 -9 7 -18 15 -21 8 -4 15 -13 15
-21 0 -10 6 -12 20 -8 14 5 20 2 20 -9 0 -9 5 -16 10 -16 6 0 10 11 10 24 0
14 5 28 10 31 6 3 10 0 10 -8 0 -8 9 -17 20 -20 11 -3 20 -12 20 -21 0 -9 6
-16 13 -16 21 0 28 12 16 27 -13 15 -5 17 20 3 12 -6 17 -17 14 -32 -4 -21 0
-23 44 -26 26 -2 50 -7 51 -13 5 -13 32 -11 32 2 0 6 7 8 17 5 9 -4 21 -1 26
6 6 10 7 9 4 -4 -3 -9 0 -24 7 -34 10 -14 22 -16 58 -11 41 6 46 4 58 -18 13
-24 15 -24 32 -8 16 14 18 14 18 1 0 -9 13 -18 31 -22 19 -4 33 -13 36 -26 7
-26 19 -26 26 0 7 25 23 25 44 0 21 -24 33 -26 33 -4 0 14 3 14 15 4 8 -7 15
-22 15 -33 0 -20 1 -20 13 -3 16 22 42 17 42 -9 0 -10 6 -20 13 -22 6 -3 12 2
12 11 0 17 24 12 51 -11 9 -7 25 -11 35 -7 15 5 16 4 4 -5 -13 -9 -13 -12 -1
-23 11 -10 14 -10 18 0 3 6 11 12 19 12 8 0 14 5 14 12 0 6 7 18 15 27 8 9 23
26 35 39 11 12 26 20 32 16 6 -4 9 -1 6 7 -3 8 -18 15 -34 16 -16 0 -31 2 -34
3 -18 7 -83 8 -71 1 8 -5 11 -16 6 -30 -9 -29 -36 -28 -34 1 4 46 -1 68 -16
68 -10 0 -15 -10 -15 -30 0 -25 -4 -30 -24 -30 -14 0 -28 5 -32 12 -4 6 -3 8
3 5 16 -10 33 16 26 41 -4 16 -13 22 -34 22 -15 0 -48 11 -73 24 -24 13 -70
27 -102 31 -31 4 -64 11 -73 15 -31 16 -176 58 -183 54 -5 -3 -5 -17 -2 -31 5
-19 3 -24 -7 -21 -8 3 -16 17 -19 33 -4 23 -13 31 -50 42 -102 31 -176 57
-186 64 -6 5 -14 6 -17 2 -4 -3 -9 2 -13 11 -3 9 -17 16 -31 16 -14 0 -39 7
-56 16 -62 32 -64 33 -79 17 -14 -13 -15 -12 -10 13 4 22 2 26 -12 21 -9 -4
-16 -2 -16 3 0 5 -7 7 -15 4 -10 -4 -15 0 -15 10 0 13 -4 15 -19 6 -24 -12
-34 -13 -26 -1 5 10 -12 25 -30 26 -18 2 -63 24 -69 34 -4 5 -26 13 -50 16
-32 5 -46 12 -49 26 -3 11 -9 19 -14 18 -16 -3 -52 13 -57 26 -2 7 -21 15 -40
19 -20 4 -36 11 -36 16 0 6 -8 10 -18 10 -24 0 -123 35 -131 47 -3 5 -22 14
-41 20 -78 25 -111 40 -132 59 -13 11 -43 29 -68 41 -25 11 -56 26 -70 32 -45
22 -105 56 -138 80 -18 13 -59 36 -90 52 -32 15 -68 39 -82 51 -27 26 -50 40
-97 63 -18 8 -50 33 -73 55 -22 22 -43 40 -46 40 -3 0 -14 9 -25 19 -30 28
-174 143 -249 199 -36 27 -65 54 -65 59 0 13 -72 83 -78 76 -3 -2 -9 9 -15 24
-5 16 -31 51 -58 78 -27 28 -56 65 -66 84 -10 19 -33 47 -53 63 -19 16 -35 34
-35 39 0 5 -9 18 -19 30 -10 12 -23 25 -28 31 -21 24 -107 100 -126 112 -23
15 -87 11 -87 -5 0 -5 5 -9 11 -9 5 0 8 -4 5 -9 -10 -15 -48 0 -42 16 3 8 6
19 6 24 0 5 14 9 32 9 30 0 31 1 15 18 -10 9 -27 30 -39 45 -16 22 -23 26 -29
15 -5 -7 -9 -9 -9 -4 0 4 -11 1 -25 -8 -14 -9 -25 -13 -25 -9 1 14 27 43 39
43 14 0 14 13 -1 28 -16 16 -31 15 -25 -2 5 -12 -33 -56 -48 -56 -12 0 -3 24
20 54 24 31 24 35 10 62 -8 16 -15 35 -15 42 0 6 -4 12 -10 12 -5 0 -10 -10
-10 -21 0 -17 -3 -19 -13 -10 -10 8 -17 7 -25 -1 -8 -8 -10 -6 -6 9 4 14 -2
25 -20 36 -34 22 -31 67 5 67 6 0 8 -8 4 -19 -7 -23 14 -61 33 -61 15 0 9 31
-13 66 -8 12 -16 39 -20 60 -4 21 -9 46 -12 54 -3 8 -7 38 -8 66 -2 29 -6 57
-9 63 -4 6 -2 11 3 11 6 0 11 14 11 30 0 18 -5 30 -13 30 -8 0 -22 10 -33 22
-18 20 -18 21 -1 15 11 -4 25 -1 34 9 19 18 31 10 14 -10 -7 -8 -8 -17 -3 -20
13 -8 22 4 22 31 0 13 7 26 15 29 20 8 19 22 -3 26 -12 3 -6 9 21 21 30 13 37
21 37 44 1 26 2 27 14 10 12 -15 18 -16 35 -7 22 11 28 30 11 30 -5 0 -10 7
-10 15 0 8 9 15 20 15 13 0 18 -5 14 -15 -4 -8 -3 -15 0 -15 13 0 86 51 86 60
0 6 8 10 19 10 10 0 24 7 31 15 7 8 17 15 23 15 5 0 16 8 23 18 7 9 17 18 23
18 6 1 18 2 26 3 8 0 12 7 10 14 -4 8 7 13 32 15 21 1 43 9 49 17 6 8 21 15
32 15 12 0 26 9 32 19 6 13 17 18 32 15 17 -3 16 -1 -7 10 -16 9 -24 15 -17
16 8 0 10 5 6 13 -6 8 -3 8 9 -1 9 -8 25 -11 36 -7 16 5 20 3 15 -9 -10 -27
14 -18 29 10 9 17 17 23 21 15 10 -16 26 -14 26 4 0 18 26 20 33 3 3 -8 6 -5
6 6 1 14 4 16 14 7 16 -13 51 -7 83 14 13 8 32 15 42 15 12 0 22 9 26 23 5 18
8 20 16 7 9 -13 12 -13 21 3 6 9 15 15 20 11 6 -3 21 4 35 17 20 19 34 22 77
20 41 -2 59 2 79 18 14 12 31 21 36 21 5 0 15 7 22 15 7 9 19 14 26 11 17 -7
134 35 134 47 0 5 -9 7 -20 4 -15 -4 -20 0 -20 15 0 17 3 18 15 8 17 -14 35
-5 35 18 0 24 18 2 22 -27 l3 -25 29 27 c19 18 40 27 62 27 19 0 34 5 34 10 0
6 7 10 15 10 8 0 23 4 33 9 9 5 43 16 75 26 32 9 79 29 105 45 26 16 65 32 87
34 42 5 65 26 60 54 -1 9 0 11 2 5 6 -17 25 -16 49 2 10 8 26 15 35 15 9 0 22
7 29 15 7 8 20 15 30 15 10 0 20 7 24 15 3 9 18 15 38 15 36 0 60 11 57 26 -4
21 2 26 15 14 12 -9 17 -7 28 9 7 12 19 21 26 21 7 0 11 -4 8 -9 -4 -5 5 -6
21 -2 18 5 28 14 28 27 0 16 6 18 38 16 29 -3 37 0 37 13 0 11 5 15 15 11 20
-7 92 21 99 40 4 11 10 12 25 5 14 -8 22 -7 31 4 7 8 20 15 30 15 9 0 38 16
64 35 25 20 46 33 46 30 0 -11 57 24 81 49 16 17 35 26 56 26 31 0 53 20 50
45 -1 5 10 11 26 12 17 1 25 -2 21 -9 -4 -6 2 -6 15 1 21 11 25 22 22 50 -2 7
2 11 7 7 5 -3 25 6 44 19 20 13 38 21 42 18 8 -9 37 18 30 28 -3 5 -14 9 -25
9 -10 0 -19 5 -19 10 0 6 16 10 35 8 19 -1 35 -6 35 -10 0 -15 29 4 46 29 15
24 15 26 0 20 -9 -4 -15 -3 -11 2 3 5 -7 14 -22 20 l-28 11 30 -5 c17 -3 39
-7 51 -9 11 -1 25 -6 31 -9 12 -8 41 13 45 32 5 24 40 54 65 57 13 1 39 19 58
40 27 29 32 41 25 55 -14 25 -12 32 5 25 18 -6 99 69 90 84 -3 5 4 14 15 20
15 8 20 19 18 38 -2 15 3 32 10 37 7 6 14 17 16 25 1 8 11 33 21 55 23 52 33
74 45 108 5 15 14 27 20 27 5 0 10 16 10 35 0 20 7 46 14 58 8 12 20 44 26 72
10 44 40 118 86 208 8 16 14 35 14 43 0 8 4 22 9 32 35 68 59 132 59 160 0 17
10 44 21 58 27 34 27 70 1 77 -11 3 -20 12 -20 21 0 21 16 21 24 0 6 -15 8
-15 26 1 11 10 20 25 20 33 0 8 23 62 51 119 28 58 51 115 52 127 1 11 11 35
23 51 30 43 54 110 54 149 0 22 6 36 16 40 10 4 14 14 11 26 -3 13 1 24 14 30
17 10 59 86 59 109 0 5 5 11 10 13 6 2 12 13 14 25 7 33 35 70 57 76 18 5 19
8 8 20 -10 11 -16 12 -22 3 -6 -7 -7 -4 -3 7 3 10 6 20 6 23 0 2 11 -1 25 -6
17 -6 25 -6 25 1 0 6 4 7 10 4 19 -12 48 14 43 37 -4 19 -3 20 6 8 10 -13 11
-13 12 0 3 49 8 63 22 72 10 5 17 17 17 27 0 16 46 69 56 64 20 -12 91 38 80
56 -4 5 4 11 16 13 16 2 22 9 20 21 -2 11 4 17 17 17 11 0 35 13 53 29 18 15
63 43 101 61 37 18 67 36 67 42 0 5 4 7 9 4 5 -3 16 5 25 19 9 14 23 25 30 25
7 0 19 7 26 15 7 8 20 15 30 15 10 0 23 7 30 15 7 8 19 15 26 15 13 0 122 66
134 81 3 4 21 10 40 14 19 4 41 11 50 16 22 11 52 21 75 26 11 2 31 7 45 12
14 5 48 12 75 16 47 6 94 22 139 47 23 13 240 65 309 74 30 4 47 11 47 20 0
10 15 14 56 14 32 0 69 7 87 16 18 9 40 21 49 25 10 5 43 9 73 9 30 0 55 4 55
9 0 4 16 11 36 14 20 3 66 17 103 31 76 28 159 52 214 61 27 4 37 11 37 25 0
10 -4 21 -9 24 -4 3 -11 19 -15 36 -7 38 -43 55 -68 33 -10 -9 -24 -13 -33 -9
-8 3 -39 -3 -68 -13 -44 -16 -106 -34 -114 -32 -2 0 -19 -7 -39 -15 -35 -15
-74 -11 -74 7 0 5 -8 9 -18 9 -16 0 -18 8 -15 71 1 40 5 74 7 76 9 9 -19 31
-31 26 -17 -7 -16 3 3 53 15 38 14 44 -5 85 -21 48 -44 148 -39 176 1 10 -1
24 -6 32 -6 9 -3 18 8 27 20 14 13 34 -11 34 -12 0 -13 3 -4 14 8 10 9 16 2
21 -13 7 -11 55 2 73 7 9 6 17 -1 24 -7 7 -12 20 -12 29 0 11 -9 19 -22 21
-14 2 -22 9 -20 18 2 8 1 34 -3 58 -5 32 -10 42 -20 38 -22 -8 -28 13 -12 38
17 25 7 46 -20 46 -15 0 -18 26 -4 34 17 11 9 61 -12 78 -18 14 -20 19 -9 29
22 23 13 29 -30 23 l-43 -6 30 26 c28 23 28 25 9 26 -18 0 -22 6 -20 33 1 28
-2 32 -26 35 -29 3 -37 17 -16 24 19 7 -19 78 -41 78 -13 0 -17 9 -18 38 -1
56 -13 90 -34 95 -16 4 -19 13 -17 52 0 25 5 48 10 51 4 3 5 -2 2 -10 -4 -11
0 -16 15 -16 12 0 21 -6 21 -14 0 -10 11 -13 41 -10 36 3 40 2 34 -16 -5 -15
-2 -20 13 -20 10 0 28 -11 40 -25 12 -14 26 -25 32 -25 5 0 10 -9 10 -20 0
-10 15 -35 33 -54 17 -19 43 -48 57 -65 14 -16 29 -30 34 -30 5 -1 31 -26 59
-56 27 -30 53 -55 57 -55 8 0 41 -28 126 -107 22 -21 51 -55 63 -76 40 -66 80
-78 126 -36 11 9 31 19 45 21 17 2 26 10 28 26 2 12 10 22 20 22 13 0 12 3 -6
16 -16 11 -22 25 -22 51 0 34 -1 35 -30 30 -17 -4 -30 -2 -30 3 0 6 10 10 23
10 21 1 22 1 3 15 -11 8 -33 15 -49 15 -26 0 -28 3 -23 23 4 17 -1 30 -19 47
-14 13 -23 30 -20 38 2 7 1 11 -4 8 -4 -3 -16 3 -25 13 -10 11 -28 22 -41 25
-12 3 -30 17 -39 31 -13 20 -23 24 -39 20 -16 -5 -18 -4 -8 4 20 13 -3 41 -34
41 -15 0 -39 19 -71 55 -27 30 -55 55 -63 55 -12 0 -50 29 -132 102 -27 25
-74 48 -149 73 -52 17 -86 19 -95 5z m325 -1020 c0 -5 -5 -10 -11 -10 -5 0 -7
5 -4 10 3 6 8 10 11 10 2 0 4 -4 4 -10z m0 -90 c0 -5 -7 -10 -15 -10 -8 0 -15
5 -15 10 0 6 7 10 15 10 8 0 15 -4 15 -10z m-274 -752 c4 -5 -4 -8 -17 -6 -12
1 -24 8 -26 15 -5 14 34 6 43 -9z m57 5 c-13 -2 -23 -9 -23 -14 0 -6 -5 -7
-11 -3 -15 9 9 24 36 22 17 -1 17 -1 -2 -5z m-1521 -925 c-7 -7 -12 -8 -12 -2
0 14 12 26 19 19 2 -3 -1 -11 -7 -17z m-358 -543 c11 -8 18 -17 15 -19 -2 -2
-15 4 -28 15 -27 22 -15 26 13 4z m-71 -159 c4 -9 -3 -16 -19 -19 -27 -5 -29
-2 -11 18 15 18 24 18 30 1z m-153 -376 c0 -5 -4 -10 -10 -10 -5 0 -10 5 -10
10 0 6 5 10 10 10 6 0 10 -4 10 -10z m-30 -79 c0 -6 -4 -12 -10 -16 -5 -3 -7
-12 -3 -20 4 -11 -2 -15 -21 -15 l-26 0 20 20 c11 11 20 25 20 30 0 6 5 10 10
10 6 0 10 -4 10 -9z m-55 -151 c-3 -5 -11 -10 -16 -10 -6 0 -7 5 -4 10 3 6 11
10 16 10 6 0 7 -4 4 -10z m-21 -42 c-3 -5 -12 -8 -20 -8 -14 0 -20 31 -7 43 8
8 33 -25 27 -35z m-14 -96 c0 -9 -21 -32 -30 -32 -3 0 -6 9 -7 20 -1 14 4 20
18 20 10 0 19 -4 19 -8z m-79 -105 c-1 -12 -15 -9 -19 4 -3 6 1 10 8 8 6 -3
11 -8 11 -12z m-7 -80 c-3 -39 -5 -41 -18 -17 -8 14 -12 28 -9 33 8 13 28 1
27 -16z m-4 -68 c0 -15 -5 -20 -22 -17 -27 4 -35 25 -11 31 31 8 33 7 33 -14z
m-33 -55 c-3 -3 -12 -4 -19 -1 -8 3 -5 6 6 6 11 1 17 -2 13 -5z m-107 -158 c0
-3 -4 -8 -10 -11 -5 -3 -10 -1 -10 4 0 6 5 11 10 11 6 0 10 -2 10 -4z m-55
-55 c3 -5 1 -12 -5 -16 -5 -3 -10 1 -10 9 0 18 6 21 15 7z m-135 -65 c0 -3 -4
-8 -10 -11 -5 -3 -10 -1 -10 4 0 6 5 11 10 11 6 0 10 -2 10 -4z m155 -36 c-3
-5 -12 -10 -18 -10 -7 0 -6 4 3 10 19 12 23 12 15 0z m-105 -55 c0 -8 -7 -15
-15 -15 -16 0 -20 12 -8 23 11 12 23 8 23 -8z m-160 -43 c0 -4 -9 -8 -20 -9
-11 -1 -20 2 -20 8 0 5 9 9 20 9 11 0 20 -4 20 -8z m-250 -176 c0 -3 -7 -12
-16 -20 -19 -20 -39 -11 -21 9 11 13 37 21 37 11z m-250 -116 c0 -5 -4 -10
-10 -10 -5 0 -10 5 -10 10 0 6 5 10 10 10 6 0 10 -4 10 -10z m-20 -56 c0 -8
-4 -12 -10 -9 -5 3 -10 10 -10 16 0 5 5 9 10 9 6 0 10 -7 10 -16z m86 -11
c-10 -10 -19 5 -10 18 6 11 8 11 12 0 2 -7 1 -15 -2 -18z m-256 -13 c0 -5 -10
-10 -22 -10 -19 0 -20 2 -8 10 19 13 30 13 30 0z m140 -10 c0 -5 -7 -10 -15
-10 -8 0 -15 5 -15 10 0 6 7 10 15 10 8 0 15 -4 15 -10z m-199 -17 c13 -15 12
-15 -11 -3 -34 17 -36 20 -18 20 9 0 22 -7 29 -17z m137 -1 c2 -7 -3 -12 -12
-12 -9 0 -16 7 -16 16 0 17 22 14 28 -4z m-43 -30 c-3 -8 -5 -21 -5 -30 0 -14
-2 -14 -9 -3 -5 7 -6 22 -4 32 3 10 0 19 -6 19 -6 0 -11 5 -11 10 0 6 8 5 20
-2 11 -7 18 -19 15 -26z m-147 0 c2 -8 -8 -12 -27 -12 -36 0 -50 17 -19 23 31
6 41 3 46 -11z m32 -12 c0 -5 -2 -10 -4 -10 -3 0 -8 5 -11 10 -3 6 -1 10 4 10
6 0 11 -4 11 -10z m50 -26 c0 -2 -7 -4 -15 -4 -8 0 -15 4 -15 10 0 5 7 7 15 4
8 -4 15 -8 15 -10z m-167 -34 c7 -28 -10 -35 -34 -14 -15 13 -16 19 -7 26 21
13 35 9 41 -12z m-103 -46 c0 -8 -4 -12 -10 -9 -5 3 -10 10 -10 16 0 5 5 9 10
9 6 0 10 -7 10 -16z m-40 -4 c12 -7 12 -12 2 -22 -9 -9 -15 -10 -20 -2 -4 6
-16 16 -27 22 -19 11 -19 11 5 12 14 0 32 -5 40 -10z m-80 -15 c7 -9 11 -18 8
-21 -7 -7 -58 17 -58 28 0 14 37 9 50 -7z m14 -52 c7 -18 -14 -37 -27 -24 -9
9 1 41 13 41 4 0 11 -8 14 -17z m46 -13 c0 -5 -4 -10 -10 -10 -5 0 -10 5 -10
10 0 6 5 10 10 10 6 0 10 -4 10 -10z m-88 -42 c-7 -7 -12 -8 -12 -2 0 14 12
26 19 19 2 -3 -1 -11 -7 -17z m-382 -72 c0 -2 -7 -6 -15 -10 -8 -3 -15 -1 -15
4 0 6 7 10 15 10 8 0 15 -2 15 -4z m150 -36 c0 -11 -2 -20 -5 -20 -2 0 -9 9
-15 20 -9 16 -8 20 5 20 8 0 15 -9 15 -20z m-260 -10 c13 -9 13 -12 -3 -21 -9
-6 -15 -14 -12 -20 4 -5 2 -9 -4 -9 -12 0 -19 20 -13 43 5 19 11 21 32 7z m70
-10 c0 -5 -2 -10 -4 -10 -3 0 -8 5 -11 10 -3 6 -1 10 4 10 6 0 11 -4 11 -10z
m-77 -64 c6 -15 -1 -26 -15 -26 -4 0 -8 9 -8 20 0 23 15 27 23 6z m-119 -21
c3 -8 1 -15 -4 -15 -6 0 -10 7 -10 15 0 8 2 15 4 15 2 0 6 -7 10 -15z m-194
-125 c0 -5 -8 -10 -17 -10 -15 0 -16 2 -3 10 19 12 20 12 20 0z m-91 -14 c17
-21 -4 -30 -23 -10 -9 8 -16 17 -16 20 0 10 29 3 39 -10z m45 -1 c-4 -8 -10
-15 -15 -15 -4 0 -6 7 -3 15 4 8 10 15 15 15 4 0 6 -7 3 -15z m-279 -55 c3 -5
1 -10 -4 -10 -6 0 -11 5 -11 10 0 6 2 10 4 10 3 0 8 -4 11 -10z m-420 -200 c3
-5 -1 -10 -9 -10 -9 0 -16 5 -16 10 0 6 4 10 9 10 6 0 13 -4 16 -10z m-115
-80 c-8 -5 -19 -10 -25 -10 -5 0 -3 5 5 10 8 5 20 10 25 10 6 0 3 -5 -5 -10z
m-200 -102 c0 -11 -29 -23 -36 -15 -3 3 -4 10 0 15 7 11 36 11 36 0z m-140
-243 c0 -8 -7 -15 -15 -15 -16 0 -20 12 -8 23 11 12 23 8 23 -8z m-40 -5 c0
-5 -5 -10 -11 -10 -5 0 -7 5 -4 10 3 6 8 10 11 10 2 0 4 -4 4 -10z m15 -94
c23 -1 28 -37 6 -44 -10 -3 -12 0 -8 12 5 11 1 16 -12 16 -10 0 -25 8 -32 17
-12 15 -12 16 6 9 11 -5 29 -9 40 -10z m-15 -50 c0 -2 -9 -6 -20 -9 -11 -3
-18 -1 -14 4 5 9 34 13 34 5z m21 -123 c13 -16 12 -17 -3 -4 -17 13 -22 21
-14 21 2 0 10 -8 17 -17z m329 -408 c0 -8 -4 -15 -9 -15 -13 0 -22 16 -14 24
11 11 23 6 23 -9z m30 -79 c0 -11 -19 -15 -25 -6 -3 5 1 10 9 10 9 0 16 -2 16
-4z m320 -351 c-7 -9 -15 -13 -17 -11 -7 7 7 26 19 26 6 0 6 -6 -2 -15z m80
-64 c0 -6 -4 -12 -8 -15 -5 -3 -9 1 -9 9 0 8 4 15 9 15 4 0 8 -4 8 -9z m220
-217 c0 -2 -7 -4 -15 -4 -8 0 -15 4 -15 10 0 5 7 7 15 4 8 -4 15 -8 15 -10z
m10 -23 c0 -5 -7 -12 -16 -15 -24 -9 -28 -7 -14 9 14 17 30 20 30 6z m100 -25
c0 -3 -4 -8 -10 -11 -5 -3 -10 -1 -10 4 0 6 5 11 10 11 6 0 10 -2 10 -4z m105
-137 c-4 -5 -1 -9 6 -9 7 0 10 -3 6 -6 -12 -12 -37 5 -31 21 3 8 10 12 15 9 5
-3 7 -10 4 -15z m-1 -41 c-3 -4 4 -13 16 -20 11 -7 20 -20 20 -28 -1 -12 -3
-11 -11 3 -6 9 -14 15 -19 12 -4 -3 -15 5 -23 18 -13 21 -13 23 3 23 10 0 16
-4 14 -8z m486 -206 c0 -13 -12 -22 -22 -16 -10 6 -1 24 13 24 5 0 9 -4 9 -8z
m135 -72 c-3 -5 -10 -10 -16 -10 -5 0 -9 5 -9 10 0 6 7 10 16 10 8 0 12 -4 9
-10z m35 -30 c0 -5 -7 -10 -15 -10 -8 0 -15 5 -15 10 0 6 7 10 15 10 8 0 15
-4 15 -10z m540 -221 c0 -5 -4 -9 -10 -9 -5 0 -10 7 -10 16 0 8 5 12 10 9 6
-3 10 -10 10 -16z m60 -34 c0 -8 -4 -15 -10 -15 -5 0 -10 7 -10 15 0 8 5 15
10 15 6 0 10 -7 10 -15z m-100 -5 c0 -5 -7 -10 -15 -10 -8 0 -15 5 -15 10 0 6
7 10 15 10 8 0 15 -4 15 -10z m480 -171 c0 -11 -4 -17 -10 -14 -5 3 -10 13
-10 21 0 8 5 14 10 14 6 0 10 -9 10 -21z m37 -1 c-3 -8 -6 -5 -6 6 -1 11 2 17
5 13 3 -3 4 -12 1 -19z m43 -18 c0 -5 -7 -10 -15 -10 -8 0 -15 5 -15 10 0 6 7
10 15 10 8 0 15 -4 15 -10z m70 -30 c0 -5 -4 -10 -10 -10 -5 0 -10 5 -10 10 0
6 5 10 10 10 6 0 10 -4 10 -10z m157 -26 c6 -13 7 -24 2 -24 -5 0 -9 5 -9 11
0 6 -12 9 -27 7 -18 -2 -29 2 -31 12 -2 10 7 16 25 17 21 1 31 -4 40 -23z
m-117 -4 c0 -5 -4 -10 -10 -10 -5 0 -10 5 -10 10 0 6 5 10 10 10 6 0 10 -4 10
-10z m210 -15 c0 -8 -7 -15 -15 -15 -16 0 -20 12 -8 23 11 12 23 8 23 -8z
m-100 -36 c0 -5 -9 -9 -20 -9 -22 0 -27 16 -7 23 15 5 27 -1 27 -14z m150 1
c0 -5 -7 -10 -15 -10 -8 0 -15 5 -15 10 0 6 7 10 15 10 8 0 15 -4 15 -10z
m-40 -10 c0 -5 -8 -10 -17 -10 -15 0 -16 2 -3 10 19 12 20 12 20 0z m80 -15
c0 -8 8 -18 18 -24 16 -9 16 -10 -1 -17 -22 -8 -23 -7 -30 34 -4 21 -3 31 3
27 6 -3 10 -12 10 -20z m50 -1 c0 -8 -4 -12 -10 -9 -5 3 -10 10 -10 16 0 5 5
9 10 9 6 0 10 -7 10 -16z m40 -18 c0 -11 -19 -15 -25 -6 -3 5 1 10 9 10 9 0
16 -2 16 -4z m70 -32 c0 -2 -9 -4 -21 -4 -11 0 -18 4 -14 10 5 8 35 3 35 -6z
m200 -50 c0 -8 -3 -14 -8 -14 -11 0 -32 37 -25 44 9 8 33 -14 33 -30z"/>
<path d="M8895 10360 c-3 -5 -1 -10 4 -10 6 0 11 5 11 10 0 6 -2 10 -4 10 -3
0 -8 -4 -11 -10z"/>
<path d="M6790 7725 c-19 -7 -36 -17 -38 -24 -2 -6 -9 -11 -17 -11 -7 0 -15
-13 -18 -30 -4 -18 -13 -30 -23 -30 -8 0 -14 -6 -11 -12 6 -19 -11 -48 -28
-48 -21 0 -19 -20 3 -21 13 0 12 -3 -5 -11 -17 -8 -23 -20 -23 -44 0 -18 -5
-36 -10 -39 -6 -4 -8 -10 -5 -15 3 -5 -2 -21 -11 -35 -9 -14 -14 -31 -11 -39
3 -7 2 -17 -2 -22 -14 -15 -21 -63 -11 -69 16 -10 12 -35 -5 -35 -10 0 -15
-10 -15 -27 0 -55 -15 -181 -22 -188 -22 -22 107 -175 133 -159 6 3 16 1 23
-5 16 -13 71 3 62 18 -3 5 8 11 24 13 19 3 29 1 27 -6 -2 -6 -11 -10 -21 -8
-20 4 -21 -17 0 -25 17 -6 67 35 58 48 -3 5 2 9 12 9 13 0 14 -3 5 -13 -14
-17 -4 -27 27 -27 21 0 23 3 18 26 -7 27 -7 27 38 21 48 -7 76 -1 76 15 0 6
-7 8 -15 5 -8 -4 -17 -2 -20 3 -4 6 3 10 14 10 11 0 22 -4 25 -9 7 -10 59 -2
67 11 3 5 12 11 20 12 75 15 95 38 29 34 -22 -1 -43 1 -46 5 -4 4 6 7 22 8 83
3 112 7 133 18 12 7 35 15 49 17 15 3 30 11 34 17 4 7 8 8 8 3 0 -6 6 -1 14 9
8 11 11 26 8 34 -4 10 -1 13 11 8 9 -3 20 -1 24 6 5 7 27 22 51 35 64 35 92
58 157 136 17 20 36 36 43 36 6 0 20 8 30 18 34 34 112 79 134 78 25 -1 54 28
60 59 3 18 -4 21 -67 26 -38 3 -76 1 -82 -4 -9 -6 -13 -6 -13 1 0 16 -155 9
-175 -8 -12 -10 -15 -10 -15 4 0 9 -8 16 -17 17 -148 7 -178 11 -185 24 -5 7
-17 12 -28 10 -11 -2 -18 0 -15 4 3 5 -2 12 -11 15 -8 3 -12 2 -9 -4 9 -14
-16 -12 -47 4 -31 16 -41 11 -28 -15 6 -11 6 -20 1 -23 -5 -4 -12 7 -16 23 -6
27 -9 29 -41 24 -19 -3 -34 -1 -34 4 0 11 -76 43 -102 43 -9 0 -33 16 -54 35
-20 19 -44 35 -52 35 -9 0 -25 8 -36 18 -18 16 -26 17 -56 7z m6 -79 c3 -8 13
-12 25 -9 10 3 19 0 19 -6 0 -6 -3 -11 -7 -12 -5 0 -16 -2 -25 -4 -10 -2 -18
0 -18 5 0 4 -9 10 -21 13 -12 3 -18 10 -14 16 9 16 35 14 41 -3z m112 -65 c0
-23 -3 -28 -14 -24 -8 3 -13 12 -10 20 3 8 6 19 6 24 0 5 4 9 8 9 5 0 9 -13
10 -29z m-130 -15 c-7 -8 -15 -12 -17 -11 -5 6 10 25 20 25 5 0 4 -6 -3 -14z
m-58 -16 c0 -5 -4 -10 -10 -10 -5 0 -10 5 -10 10 0 6 5 10 10 10 6 0 10 -4 10
-10z m0 -45 c0 -8 -9 -15 -20 -15 -22 0 -27 15 -7 23 21 9 27 7 27 -8z m280
-30 c0 -8 -7 -15 -15 -15 -8 0 -15 7 -15 15 0 8 7 15 15 15 8 0 15 -7 15 -15z
m453 -10 c-5 -13 -23 -22 -23 -11 0 15 14 35 21 31 4 -3 6 -12 2 -20z m-723 0
c-7 -9 -15 -13 -17 -11 -7 7 7 26 19 26 6 0 6 -6 -2 -15z m417 -7 c-3 -8 -6
-5 -6 6 -1 11 2 17 5 13 3 -3 4 -12 1 -19z m-17 -1 c0 -4 -6 -5 -12 -1 -9 5
-10 4 -3 -4 14 -15 50 -19 50 -5 0 6 4 15 8 20 5 4 8 4 7 -2 -5 -24 1 -27 16
-9 8 10 13 13 9 7 -3 -7 0 -13 7 -13 9 0 9 -3 2 -8 -7 -5 -5 -14 9 -27 11 -11
17 -14 13 -7 -4 6 -2 12 3 12 6 0 11 -7 11 -15 0 -14 16 -19 52 -16 9 1 19 -3
23 -9 3 -5 11 -10 17 -10 6 0 5 7 -3 18 -12 16 -12 16 6 0 17 -15 17 -20 5
-43 -7 -14 -19 -25 -25 -25 -7 0 -15 -14 -19 -30 -3 -17 -11 -30 -18 -29 -48
6 -72 -18 -45 -46 18 -18 50 -19 79 -4 16 9 23 8 29 -2 12 -19 11 -32 -1 -24
-6 4 -23 4 -39 0 -24 -5 -31 -14 -38 -43 -6 -25 -15 -38 -28 -40 -18 -2 -19
-2 -2 8 17 11 24 40 8 40 -4 0 -20 -9 -34 -20 -27 -21 -53 -27 -42 -10 4 6 1
17 -5 25 -10 12 -10 15 0 15 7 0 10 8 7 20 -4 15 0 20 14 20 10 0 19 -7 19
-15 0 -17 25 -20 35 -5 3 6 -1 17 -9 26 -14 13 -24 14 -67 5 -27 -6 -59 -11
-71 -11 -18 0 -19 2 -7 17 11 13 11 17 1 20 -6 3 -10 9 -6 14 3 5 1 9 -4 9 -5
0 -12 10 -15 21 -4 16 -11 20 -25 17 -11 -3 -25 -2 -32 2 -7 4 -1 8 15 8 25 0
44 15 45 35 0 4 -7 7 -15 7 -8 0 -15 4 -15 8 0 4 -11 9 -24 10 -20 1 -22 -2
-18 -23 2 -14 0 -25 -6 -25 -6 0 -19 -3 -29 -7 -17 -6 -17 -5 1 15 17 19 17
22 2 28 -9 3 -27 7 -41 8 -14 0 -25 7 -25 15 0 10 10 12 39 7 23 -3 42 -2 46
4 4 7 12 7 25 0 10 -5 23 -10 29 -10 10 0 8 51 -3 69 -4 5 0 11 6 14 22 7 88
3 88 -6z m-300 -7 c0 -5 -4 -10 -10 -10 -5 0 -10 5 -10 10 0 6 5 10 10 10 6 0
10 -4 10 -10z m455 -10 c-3 -5 -12 -10 -18 -10 -7 0 -6 4 3 10 19 12 23 12 15
0z m-365 -15 c0 -8 -6 -15 -14 -15 -20 0 -29 17 -14 23 22 9 28 7 28 -8z m476
-3 c1 -7 0 -8 -3 -2 -2 5 -9 8 -14 4 -5 -3 -9 0 -9 6 0 15 23 7 26 -8z m234
-13 c0 -15 -22 -21 -31 -8 -14 22 -11 28 11 22 11 -3 20 -9 20 -14z m-970 -4
c0 -8 -4 -15 -10 -15 -5 0 -10 7 -10 15 0 8 5 15 10 15 6 0 10 -7 10 -15z
m865 6 c3 -5 0 -13 -6 -17 -7 -4 -9 -3 -5 4 3 6 -2 13 -11 15 -16 4 -16 5 -1
6 9 0 19 -3 23 -8z m-795 -10 c0 -5 -7 -11 -15 -15 -15 -5 -20 5 -8 17 9 10
23 9 23 -2z m758 -23 c-2 -6 -10 -13 -16 -14 -9 -2 -9 -1 -1 3 8 4 7 8 -2 14
-11 7 -10 9 4 9 10 0 17 -5 15 -12z m-608 -12 c0 -2 -9 -6 -20 -9 -11 -3 -20
-1 -20 4 0 5 9 9 20 9 11 0 20 -2 20 -4z m-60 -20 c0 -2 -7 -7 -16 -10 -8 -3
-12 -2 -9 4 6 10 25 14 25 6z m660 -6 c0 -5 -7 -7 -15 -4 -8 4 -15 8 -15 10 0
2 7 4 15 4 8 0 15 -4 15 -10z m-570 -25 c0 -8 -7 -15 -16 -15 -14 0 -14 3 -4
15 7 8 14 15 16 15 2 0 4 -7 4 -15z m550 -25 c0 -11 -10 -20 -27 -23 -40 -8
-48 2 -23 28 24 26 50 23 50 -5z m-725 10 c4 -6 -6 -10 -22 -9 -25 0 -26 1 -8
9 11 5 21 9 22 9 1 1 5 -3 8 -9z m209 -19 c3 -5 -1 -14 -9 -21 -12 -10 -13
-16 -3 -28 9 -11 10 -14 1 -9 -7 5 -17 -1 -23 -13 -6 -11 -16 -18 -21 -14 -6
3 -3 12 8 20 17 13 17 14 -1 25 -18 11 -18 12 5 30 27 21 35 23 43 10z m-84
-41 c12 -23 5 -26 -16 -6 -16 17 -18 26 -4 26 5 0 14 -9 20 -20z m-136 -2 c-3
-4 -14 -8 -25 -8 -11 0 -18 4 -14 9 3 6 14 9 25 8 10 -1 16 -5 14 -9z m561 -8
c3 -6 -1 -7 -9 -4 -18 7 -21 14 -7 14 6 0 13 -4 16 -10z m190 -29 c3 -5 -4
-13 -16 -16 -23 -8 -34 -1 -24 14 8 13 32 14 40 2z m-769 -56 c-17 -17 -32
-19 -41 -5 -3 5 0 7 8 4 8 -3 18 -1 22 5 3 6 11 11 16 11 6 0 4 -7 -5 -15z
m114 -4 c0 -6 -4 -13 -10 -16 -5 -3 -10 1 -10 9 0 9 5 16 10 16 6 0 10 -4 10
-9z m164 -9 c-6 -4 -13 -12 -15 -19 -3 -9 -9 -9 -19 -3 -13 9 -13 11 0 20 8 5
22 10 30 10 10 0 11 -3 4 -8z m-234 -36 c0 -10 -30 0 -34 11 -4 11 -1 11 14 3
11 -6 20 -12 20 -14z m105 -6 c-3 -5 -12 -7 -20 -3 -21 7 -19 13 6 13 11 0 18
-4 14 -10z m275 -10 c0 -5 -4 -10 -10 -10 -5 0 -10 5 -10 10 0 6 5 10 10 10 6
0 10 -4 10 -10z m-428 -22 c-7 -7 -12 -8 -12 -2 0 14 12 26 19 19 2 -3 -1 -11
-7 -17z m188 3 c0 -5 -9 -11 -21 -14 -16 -4 -18 -3 -8 9 13 16 29 19 29 5z
m210 0 c0 -6 -9 -9 -20 -8 -11 1 -20 5 -20 9 0 4 9 8 20 8 11 0 20 -4 20 -9z
m-55 -11 c3 -5 2 -10 -4 -10 -5 0 -13 5 -16 10 -3 6 -2 10 4 10 5 0 13 -4 16
-10z m-78 -32 c-3 -7 -5 -2 -5 12 0 14 2 19 5 13 2 -7 2 -19 0 -25z m-114 -30
c-8 -14 -21 -8 -26 12 -6 23 15 33 24 11 4 -9 5 -19 2 -23z m62 12 c-3 -5 -15
-10 -26 -10 -10 0 -19 5 -19 10 0 6 12 10 26 10 14 0 23 -4 19 -10z m-23 -62
c-11 -11 -32 -3 -32 12 0 4 9 6 21 3 13 -4 17 -9 11 -15z m-67 -16 c-7 -8 -45
10 -40 19 4 5 14 3 25 -3 11 -7 17 -14 15 -16z m-144 -13 c28 -15 13 -31 -16
-17 -25 11 -34 28 -14 28 6 0 19 -5 30 -11z"/>
<path d="M4477 6251 c-6 -23 0 -31 22 -30 12 0 11 3 -4 9 -19 8 -19 9 3 9 14
1 22 6 20 14 -7 20 -35 19 -41 -2z"/>
<path d="M3900 6035 c-19 -35 0 -51 22 -20 14 19 15 25 4 34 -10 8 -16 5 -26
-14z"/>
<path d="M3670 5968 c-21 -9 -22 -12 -8 -15 10 -3 25 3 34 11 18 18 10 19 -26
4z"/>
<path d="M3620 5924 c0 -8 9 -14 20 -14 11 0 20 4 20 9 0 5 -9 11 -20 14 -13
3 -20 0 -20 -9z"/>
<path d="M3550 5909 c0 -5 5 -7 10 -4 6 3 10 8 10 11 0 2 -4 4 -10 4 -5 0 -10
-5 -10 -11z"/>
<path d="M7046 3746 c5 -20 2 -26 -10 -26 -9 0 -16 8 -16 20 0 11 -3 20 -8 20
-15 0 -30 -38 -27 -71 4 -32 3 -33 -8 -9 -6 14 -12 27 -14 29 -2 3 -15 -6 -29
-20 -25 -23 -34 -21 -46 14 -2 4 -18 5 -36 1 -36 -7 -38 -31 -3 -26 15 1 21
-2 18 -10 -2 -7 0 -24 5 -37 7 -21 7 -22 -7 -11 -8 7 -21 10 -29 7 -20 -8 -28
3 -15 20 9 10 8 13 -5 13 -9 0 -16 -4 -16 -10 0 -5 -9 -1 -20 10 -18 18 -34
18 -63 3 -4 -3 -3 -10 2 -17 13 -16 4 -26 -23 -25 -12 0 -15 3 -8 6 25 10 11
19 -23 15 -27 -3 -35 -9 -36 -26 -1 -16 -2 -17 -6 -3 -5 18 -23 24 -23 8 0 -6
-9 -8 -20 -6 -11 2 -23 -1 -26 -7 -5 -7 -2 -8 7 -3 12 8 12 6 0 -8 -18 -23
-23 -21 -19 6 2 18 -2 22 -27 25 -26 2 -28 1 -14 -11 15 -11 15 -15 2 -32 -15
-19 -15 -19 -8 4 5 17 4 22 -6 19 -8 -3 -22 -1 -32 4 -13 6 -23 2 -42 -16 -14
-14 -25 -32 -25 -40 0 -10 -7 -13 -22 -10 -26 4 -87 -21 -106 -45 -11 -14 -12
-14 -11 -1 3 33 -2 45 -11 25 -7 -17 -9 -17 -9 -2 -1 9 -4 17 -9 17 -14 0 -32
-39 -25 -56 5 -14 3 -14 -17 -2 -13 7 -33 24 -45 37 -17 19 -24 21 -30 11 -6
-9 -4 -11 6 -5 12 7 12 5 1 -6 -10 -11 -14 -11 -21 -1 -5 9 -16 4 -40 -19 -21
-20 -39 -29 -52 -26 -10 3 -19 1 -19 -5 0 -5 -5 -6 -12 -2 -7 5 -8 3 -3 -6 5
-9 2 -10 -14 -5 -15 4 -23 1 -27 -10 -4 -10 -10 -12 -18 -6 -16 14 -111 6
-135 -11 -20 -14 -21 -16 -4 -22 16 -7 15 -9 -7 -21 -14 -8 -36 -14 -50 -14
-23 0 -24 1 -7 13 22 17 22 22 -5 30 -22 7 -22 7 -3 15 16 7 12 9 -17 9 -20 0
-39 -5 -41 -12 -7 -18 -99 -9 -110 9 -9 17 -47 20 -47 5 0 -5 5 -10 10 -10 6
0 10 -5 10 -11 0 -8 -4 -8 -14 0 -19 16 -66 4 -59 -15 3 -8 -1 -14 -11 -14 -9
0 -16 7 -16 15 0 16 -30 35 -54 35 -9 0 -16 -6 -16 -12 0 -7 -12 -18 -26 -25
-23 -11 -26 -10 -22 5 4 15 -1 17 -28 14 -18 -2 -32 -9 -31 -14 1 -6 -3 -12
-9 -15 -7 -2 -11 7 -11 22 0 30 -30 57 -56 51 -26 -6 -137 14 -137 25 0 5 -7
9 -15 9 -8 0 -15 -4 -15 -8 0 -4 -17 -8 -37 -8 -21 -1 -51 -4 -66 -8 -21 -5
-35 -1 -55 14 -20 16 -34 20 -60 15 -23 -4 -32 -3 -27 4 3 6 15 11 26 11 29 0
23 17 -8 23 -16 3 -32 -1 -40 -9 -18 -18 -32 -18 -39 0 -7 18 -58 14 -79 -7
-24 -25 -33 -21 -41 18 -8 42 -26 45 -60 8 l-26 -28 8 29 7 28 -34 -17 c-19
-10 -35 -19 -37 -20 -8 -7 45 -51 72 -60 33 -11 47 -35 21 -35 -15 0 -15 -2
-1 -15 23 -23 61 -19 63 6 2 29 12 37 23 19 6 -9 6 -16 0 -18 -19 -7 -10 -22
14 -22 16 0 23 -5 22 -17 -1 -21 40 -43 97 -49 23 -3 47 -11 52 -18 14 -18 71
-27 101 -16 38 15 95 2 102 -22 3 -12 11 -18 21 -15 30 9 36 9 56 8 19 -2 19
-2 2 -15 -16 -13 -15 -14 15 -19 18 -3 95 -4 171 -2 112 2 137 0 137 -11 0 -8
7 -14 15 -14 8 0 15 5 15 11 0 11 27 9 114 -7 16 -3 33 -1 40 5 6 5 36 11 66
13 33 2 60 9 67 18 11 13 12 12 13 -7 0 -13 5 -23 10 -23 6 0 10 5 10 10 0 18
20 11 21 -7 0 -11 3 -13 6 -5 6 14 43 16 43 2 0 -5 7 -10 16 -10 13 0 15 7 11
28 -7 37 4 53 33 49 33 -5 38 -27 6 -27 -17 0 -26 -5 -26 -16 0 -13 10 -15 68
-9 37 3 84 8 105 11 37 6 49 18 25 27 -8 2 -9 8 -4 13 5 5 11 4 13 -3 6 -16
73 -17 73 -2 0 8 14 10 40 6 45 -6 53 8 15 25 -25 11 -34 28 -15 28 6 0 10 -4
10 -9 0 -5 9 -7 20 -4 11 3 17 9 14 14 -3 5 3 9 13 9 15 0 16 2 3 10 -13 8
-12 10 3 10 13 0 17 -5 13 -18 -4 -11 2 -22 15 -31 20 -12 21 -11 17 7 -6 23
23 37 40 20 5 -5 20 -8 33 -5 l24 4 -22 8 c-32 10 -29 27 4 19 22 -6 25 -4 20
10 -5 12 -1 16 18 16 14 0 25 -6 25 -12 0 -7 11 -14 25 -14 27 -2 33 10 13 23
-19 11 43 22 64 11 10 -5 40 -6 67 -2 37 5 51 11 54 26 5 17 8 18 28 7 17 -9
24 -9 27 0 5 16 32 14 32 -3 0 -10 13 -13 44 -12 50 1 65 11 48 28 -9 9 -12 9
-12 0 0 -7 -4 -12 -10 -12 -14 0 10 48 28 55 12 4 12 3 3 -9 -10 -11 -9 -19 1
-35 14 -23 34 -22 32 1 -1 10 9 13 37 11 21 -2 41 2 44 7 4 6 10 8 15 5 5 -3
30 0 55 6 33 8 45 16 41 26 -5 11 -2 11 17 1 20 -10 90 -12 138 -3 11 2 17 0
14 -4 -3 -5 2 -11 10 -15 8 -3 15 -2 15 3 0 4 21 5 48 1 29 -5 49 -4 53 2 4 6
15 2 28 -11 23 -23 52 -27 80 -9 15 9 23 7 47 -15 16 -15 40 -27 54 -27 14 0
35 -7 46 -15 12 -8 44 -15 73 -17 42 -3 51 -6 51 -22 0 -16 5 -18 36 -13 25 4
37 2 41 -9 7 -19 33 -18 33 1 0 18 12 19 27 4 8 -8 17 -7 34 5 18 13 23 26 25
71 2 41 -1 58 -12 62 -8 3 -14 16 -14 29 0 13 -6 24 -12 24 -7 0 -23 3 -35 6
-19 5 -23 2 -23 -15 0 -11 -4 -21 -10 -21 -5 0 -10 9 -10 21 0 16 -4 19 -20
14 -13 -4 -22 -1 -26 10 -4 11 -10 12 -18 6 -8 -7 -20 -3 -39 14 -14 14 -34
25 -43 25 -11 0 -14 5 -10 16 6 15 4 15 -10 3 -9 -7 -25 -18 -37 -24 -11 -5
-22 -17 -24 -25 -3 -10 1 -8 11 4 20 24 20 17 2 -18 -13 -26 -14 -26 -19 -5
-3 12 -2 30 4 40 7 15 6 17 -6 13 -25 -10 -17 4 13 21 l27 16 -33 -4 c-26 -3
-36 1 -44 17 -12 23 -27 36 -42 36 -6 0 -2 -6 9 -13 19 -15 13 -37 -10 -37 -8
0 -29 14 -46 31 -22 22 -34 27 -39 19 -6 -9 -11 -7 -19 6 -11 17 -11 17 -6 -3
4 -14 2 -23 -4 -23 -6 0 -11 5 -11 10 0 6 -9 10 -19 10 -11 0 -23 5 -27 12 -5
8 -9 6 -14 -6 -6 -18 -7 -18 -24 -1 -15 15 -19 16 -27 4 -8 -12 -12 -11 -23 4
-16 21 -40 23 -33 2 9 -21 -8 -27 -38 -13 -21 9 -31 9 -46 0 -23 -15 -41 -8
-33 13 3 7 -4 18 -16 25 -19 10 -20 9 -14 -14z m-6 -66 c0 -11 -4 -20 -9 -20
-7 0 -8 17 -2 38 4 10 11 -2 11 -18z m107 14 c-3 -3 -12 -4 -19 -1 -8 3 -5 6
6 6 11 1 17 -2 13 -5z m63 -18 c0 -10 -34 2 -38 13 -3 10 0 10 17 2 11 -7 21
-13 21 -15z m126 12 c4 -7 4 -10 -1 -6 -4 4 -15 2 -24 -5 -14 -11 -14 -10 -2
6 16 20 18 21 27 5z m-444 -40 c-6 -6 -9 0 -9 18 0 23 1 24 9 10 7 -12 7 -21
0 -28z m54 15 c-10 -10 -19 5 -10 18 6 11 8 11 12 0 2 -7 1 -15 -2 -18z m471
7 c4 -12 3 -12 -5 -1 -7 9 -12 10 -16 2 -11 -17 -26 -13 -19 4 7 19 35 16 40
-5z m-346 -7 c13 -16 12 -17 -3 -4 -17 13 -22 21 -14 21 2 0 10 -8 17 -17z
m74 -12 c-3 -6 -11 -8 -17 -5 -6 4 -5 9 3 15 16 10 23 4 14 -10z m336 -16 c10
-22 13 -38 7 -47 -8 -10 -9 -9 -5 2 5 17 -13 48 -27 46 -5 -1 -10 7 -12 17 -4
29 20 18 37 -18z m32 11 c4 -10 1 -13 -9 -9 -15 6 -19 23 -5 23 5 0 11 -7 14
-14z m-529 -5 c3 -4 -4 -7 -14 -6 -27 2 -33 10 -10 12 11 1 22 -2 24 -6z
m-226 -26 c-3 -3 -9 2 -12 12 -6 14 -5 15 5 6 7 -7 10 -15 7 -18z m178 0 c-1
-8 -8 -21 -16 -28 -10 -10 -11 -9 -4 3 5 8 9 18 10 23 3 14 4 17 8 17 2 0 3
-7 2 -15z m90 3 c4 -7 4 -10 -1 -6 -4 4 -15 2 -24 -5 -14 -11 -14 -10 -2 6 16
20 18 21 27 5z m-186 -8 c-7 -4 -10 -12 -7 -17 3 -5 -4 -10 -16 -10 -17 -2
-19 0 -7 7 13 8 12 10 -3 10 -10 0 -16 4 -13 9 3 5 17 9 32 9 16 0 21 -3 14
-8z m830 -35 c0 -7 -34 8 -42 19 -14 20 3 25 22 6 11 -11 20 -22 20 -25z
m-498 24 c-13 -5 -20 -13 -17 -19 3 -5 0 -10 -8 -10 -8 0 -17 7 -20 14 -4 11
-1 13 10 9 9 -4 14 -2 10 3 -3 5 6 10 21 11 26 2 26 2 4 -8z m368 1 c0 -5 -2
-10 -4 -10 -3 0 -8 5 -11 10 -3 6 -1 10 4 10 6 0 11 -4 11 -10z m-1098 -62
c-2 -10 -7 -18 -9 -18 -3 0 -3 9 0 20 3 11 -1 26 -8 34 -8 7 -11 17 -8 20 11
10 31 -35 25 -56z m832 31 c-3 -5 -10 -7 -15 -3 -5 3 -7 10 -3 15 3 5 10 7 15
3 5 -3 7 -10 3 -15z m-619 -9 c-3 -5 -13 -6 -21 -3 -12 4 -13 8 -3 14 15 9 32
2 24 -11z m441 -2 c-13 -22 -22 -23 -29 -4 -7 18 -3 22 21 22 16 0 18 -3 8
-18z m469 -16 c-2 -3 -12 -1 -22 2 -15 6 -15 9 -3 16 13 8 35 -8 25 -18z m162
13 c0 -8 -4 -12 -9 -9 -5 3 -6 10 -3 15 9 13 12 11 12 -6z m-107 -5 c0 -5 -5
-10 -11 -10 -5 0 -7 5 -4 10 3 6 8 10 11 10 2 0 4 -4 4 -10z m80 6 c0 -3 -4
-8 -10 -11 -5 -3 -10 -1 -10 4 0 6 5 11 10 11 6 0 10 -2 10 -4z m75 -6 c-3 -5
-10 -10 -16 -10 -5 0 -9 5 -9 10 0 6 7 10 16 10 8 0 12 -4 9 -10z m85 0 c0 -5
-4 -10 -10 -10 -5 0 -10 5 -10 10 0 6 5 10 10 10 6 0 10 -4 10 -10z m-1166
-16 c3 -8 2 -12 -4 -9 -6 3 -10 10 -10 16 0 14 7 11 14 -7z m774 -2 c2 -7 -3
-12 -12 -12 -9 0 -16 7 -16 16 0 17 22 14 28 -4z m-1118 -13 c0 -5 -15 -9 -32
-9 l-33 0 25 14 c26 13 40 12 40 -5z m37 -5 c-9 -9 -28 6 -21 18 4 6 10 6 17
-1 6 -6 8 -13 4 -17z m1288 16 c3 -6 -1 -7 -9 -4 -18 7 -21 14 -7 14 6 0 13
-4 16 -10z m-824 -23 c-10 -9 -11 -8 -5 6 3 10 9 15 12 12 3 -3 0 -11 -7 -18z
m897 -3 c3 -18 2 -18 -11 -2 -8 10 -18 14 -22 10 -5 -4 -5 -1 -1 6 11 18 30
10 34 -14z m-838 6 c0 -5 -4 -10 -10 -10 -5 0 -10 5 -10 10 0 6 5 10 10 10 6
0 10 -4 10 -10z m-533 -16 c-3 -3 -12 -4 -19 -1 -8 3 -5 6 6 6 11 1 17 -2 13
-5z m1360 -20 c-6 -6 -47 9 -47 17 0 5 11 3 25 -3 14 -6 24 -13 22 -14z
m-2927 6 c11 -7 4 -10 -25 -9 -31 0 -36 2 -20 9 26 11 28 11 45 0z m1300 0 c0
-5 -2 -10 -4 -10 -3 0 -8 5 -11 10 -3 6 -1 10 4 10 6 0 11 -4 11 -10z m380 6
c0 -3 -4 -8 -10 -11 -5 -3 -10 -1 -10 4 0 6 5 11 10 11 6 0 10 -2 10 -4z
m1286 -8 c5 -7 3 -8 -6 -3 -10 6 -12 4 -7 -8 3 -9 2 -19 -2 -21 -6 -4 -8 30
-2 42 3 5 10 1 17 -10z m41 5 c-4 -3 -2 -12 5 -20 6 -7 8 -17 4 -20 -8 -8 -26
16 -26 35 0 6 5 12 12 12 6 0 8 -3 5 -7z m-3167 -19 c0 -8 -4 -12 -10 -9 -5 3
-10 10 -10 16 0 5 5 9 10 9 6 0 10 -7 10 -16z m1355 -13 c3 -5 1 -12 -4 -15
-5 -3 -11 1 -15 9 -6 16 9 21 19 6z m-841 -22 c-6 -11 -24 -2 -24 11 0 5 7 7
15 4 8 -4 12 -10 9 -15z m1033 4 c0 -7 -4 -13 -8 -13 -4 0 -9 6 -12 13 -3 8 0
14 7 14 7 0 13 -6 13 -14z m-1355 -8 c0 -5 -5 -11 -11 -13 -6 -2 -11 4 -11 13
0 9 5 15 11 13 6 -2 11 -8 11 -13z m41 -15 c-3 -11 -9 -20 -14 -20 -10 0 -12
33 -3 43 12 12 22 -3 17 -23z m217 20 c0 -5 -9 -10 -20 -10 -11 0 -20 5 -20
10 0 6 9 10 20 10 11 0 20 -4 20 -10z m796 -27 c-10 -10 -19 5 -10 18 6 11 8
11 12 0 2 -7 1 -15 -2 -18z m62 16 c-2 -6 -8 -10 -13 -10 -5 0 -11 4 -13 10
-2 6 4 11 13 11 9 0 15 -5 13 -11z m-964 -31 c-8 -29 -11 -31 -22 -24 -15 9
-2 46 15 46 10 0 12 -6 7 -22z m168 -13 c3 -15 1 -25 -6 -25 -6 0 -12 14 -13
30 -3 36 12 32 19 -5z m666 18 c-2 -9 -8 -18 -15 -20 -7 -3 -9 3 -6 16 6 25
26 28 21 4z m192 -3 c0 -5 -9 -6 -20 -3 -11 3 -20 9 -20 13 0 5 9 6 20 3 11
-3 20 -9 20 -13z m-80 -12 c0 -9 4 -8 10 2 8 12 10 11 10 -8 0 -19 -3 -21 -19
-12 -27 14 -36 30 -17 30 9 0 16 -6 16 -12z m-839 -21 c-10 -9 -11 -8 -5 6 3
10 9 15 12 12 3 -3 0 -11 -7 -18z m569 -2 c7 -14 17 -25 22 -25 4 0 8 -4 8
-10 0 -17 -18 -11 -40 12 -20 22 -27 48 -12 48 5 0 15 -11 22 -25z m-786 -9
c-3 -9 -12 -12 -22 -9 -15 6 -9 11 25 22 1 1 0 -5 -3 -13z m536 4 c0 -5 -4
-10 -10 -10 -5 0 -10 5 -10 10 0 6 5 10 10 10 6 0 10 -4 10 -10z m370 0 c0 -5
-2 -10 -4 -10 -3 0 -8 5 -11 10 -3 6 -1 10 4 10 6 0 11 -4 11 -10z m57 -12
c-3 -8 -6 -5 -6 6 -1 11 2 17 5 13 3 -3 4 -12 1 -19z m278 2 c3 -5 1 -10 -4
-10 -6 0 -11 5 -11 10 0 6 2 10 4 10 3 0 8 -4 11 -10z m-865 -10 c0 -5 -4 -10
-10 -10 -5 0 -10 5 -10 10 0 6 5 10 10 10 6 0 10 -4 10 -10z m130 -5 c0 -8 -7
-15 -15 -15 -9 0 -12 6 -9 15 4 8 10 15 15 15 5 0 9 -7 9 -15z m705 -1 c20
-15 20 -16 -4 -12 -14 2 -26 9 -29 16 -5 16 9 15 33 -4z m-965 -4 c0 -5 -4
-10 -10 -10 -5 0 -10 5 -10 10 0 6 5 10 10 10 6 0 10 -4 10 -10z m832 -11 c3
-9 10 -9 27 0 21 12 22 11 12 -7 -19 -36 -61 -32 -61 5 0 16 17 17 22 2z
m-194 -15 c-9 -9 -21 -13 -27 -10 -20 13 -11 26 16 26 25 0 26 -1 11 -16z
m-248 -24 c0 -5 -7 -10 -15 -10 -8 0 -15 5 -15 10 0 6 7 10 15 10 8 0 15 -4
15 -10z"/>
<path d="M3730 3649 c0 -5 5 -7 10 -4 6 3 10 8 10 11 0 2 -4 4 -10 4 -5 0 -10
-5 -10 -11z"/>
<path d="M7710 3620 c0 -5 5 -10 10 -10 6 0 10 5 10 10 0 6 -4 10 -10 10 -5 0
-10 -4 -10 -10z"/>
<path d="M7772 3608 c5 -15 28 -23 28 -10 0 5 -7 13 -16 16 -10 4 -14 1 -12
-6z"/>
<path d="M4560 3550 c0 -5 4 -10 9 -10 6 0 13 5 16 10 3 6 -1 10 -9 10 -9 0
-16 -4 -16 -10z"/>
<path d="M4800 3520 c0 -5 5 -10 11 -10 5 0 7 5 4 10 -3 6 -8 10 -11 10 -2 0
-4 -4 -4 -10z"/>
<path d="M4850 3510 c0 -5 6 -10 14 -10 8 0 18 5 21 10 3 6 -3 10 -14 10 -12
0 -21 -4 -21 -10z"/>
<path d="M6385 3380 c3 -5 8 -10 11 -10 2 0 4 5 4 10 0 6 -5 10 -11 10 -5 0
-7 -4 -4 -10z"/>
<path d="M4900 3300 c0 -5 9 -10 20 -10 11 0 20 5 20 10 0 6 -9 10 -20 10 -11
0 -20 -4 -20 -10z"/>
<path d="M4820 3025 c0 -8 7 -15 15 -15 8 0 15 7 15 15 0 8 -7 15 -15 15 -8 0
-15 -7 -15 -15z"/>
<path d="M8216 2711 c5 -11 3 -13 -9 -8 -18 7 -33 -8 -17 -18 5 -3 10 -11 10
-16 0 -6 -4 -8 -9 -5 -5 4 -12 0 -15 -6 -3 -7 -4 -5 -3 6 1 12 -5 20 -20 22
-13 2 -23 0 -23 -4 0 -13 -44 -12 -52 1 -5 8 -12 5 -23 -10 -22 -32 -32 -29
-28 10 3 29 2 30 -7 9 -6 -15 -14 -21 -22 -15 -7 4 -15 8 -18 8 -3 1 -15 5
-28 9 -17 6 -27 3 -36 -9 -12 -17 -13 -17 -19 -1 -10 26 -25 10 -19 -20 3 -20
1 -25 -9 -22 -7 2 -14 15 -14 29 0 24 -5 26 -37 14 -11 -4 -18 -3 -18 4 0 6
-5 11 -11 11 -7 0 -9 -9 -6 -21 10 -37 -2 -50 -24 -28 -11 11 -24 17 -29 14
-6 -4 -10 -1 -10 4 0 6 -10 11 -22 11 -21 -1 -22 -2 -6 -14 17 -12 17 -14 -1
-35 -22 -25 -30 -26 -45 -5 -13 17 -76 26 -96 14 -7 -4 -9 -13 -5 -20 5 -9 4
-11 -4 -6 -7 5 -23 9 -37 11 -19 2 -24 -2 -24 -19 -1 -19 -3 -19 -24 7 -22 28
-25 28 -52 14 -16 -8 -36 -12 -44 -9 -8 2 -12 1 -8 -3 4 -4 3 -16 -3 -26 -9
-17 -12 -18 -32 -4 -20 13 -25 13 -45 -1 -20 -14 -22 -14 -22 4 0 14 -7 19
-30 20 -17 0 -30 -5 -30 -11 0 -7 -7 -4 -14 6 -14 18 -36 23 -36 8 0 -5 -13
-19 -30 -31 -26 -19 -29 -19 -23 -3 6 15 3 14 -21 -4 l-28 -22 -26 25 c-21 19
-34 24 -56 20 -16 -4 -46 -6 -68 -6 -36 0 -39 -2 -32 -22 6 -20 5 -21 -9 -7
-11 11 -45 18 -112 22 -54 4 -101 4 -106 1 -5 -3 -9 -16 -9 -29 0 -33 -17 -40
-22 -10 -3 13 -1 22 3 19 5 -3 9 -1 9 5 0 16 -22 25 -30 11 -9 -14 -21 -15
-29 -2 -3 5 -20 13 -38 16 -25 6 -32 4 -35 -10 -3 -16 -4 -17 -20 -1 -24 25
-46 21 -75 -13 -13 -16 -31 -30 -39 -30 -9 0 -12 -5 -9 -11 4 -6 20 -7 38 -4
29 6 30 6 14 -7 -18 -13 -16 -15 17 -25 24 -7 38 -8 42 -1 4 6 10 5 15 -3 5
-9 38 -16 90 -20 49 -3 84 -10 87 -17 2 -7 9 -12 15 -12 8 0 7 4 -1 12 -19 19
-15 23 28 23 22 1 40 -2 40 -6 0 -4 17 -7 38 -7 21 0 45 -2 53 -4 9 -2 13 4
11 16 -3 17 -1 18 12 7 11 -9 30 -11 67 -6 43 6 50 10 46 26 -3 10 0 22 5 26
6 3 9 2 6 -3 -8 -13 9 -54 22 -54 5 0 10 10 10 22 0 21 0 21 15 2 13 -16 16
-17 25 -4 9 13 14 8 11 -12 -1 -9 58 12 65 23 3 5 21 2 41 -6 28 -12 38 -13
44 -3 6 9 11 9 23 -1 12 -10 16 -11 16 -1 0 7 6 10 14 7 8 -3 17 -1 20 6 3 9
7 8 14 -2 11 -16 68 -6 90 15 15 16 52 19 52 5 0 -5 -6 -11 -12 -14 -7 -2 -9
-8 -5 -13 4 -5 12 -3 16 4 8 13 78 24 133 23 16 -1 31 6 37 16 6 10 11 12 11
6 0 -20 30 -15 30 5 0 9 9 23 21 30 24 16 37 9 21 -11 -7 -8 -9 -17 -5 -20 11
-12 23 -7 23 9 0 12 7 14 30 9 25 -5 29 -4 24 9 -4 11 -1 16 10 16 9 0 16 -7
16 -15 0 -12 6 -14 28 -8 15 4 55 7 90 6 55 -2 62 0 62 18 0 10 5 19 10 19 6
0 10 -6 10 -14 0 -11 15 -14 66 -12 36 1 67 -1 70 -6 3 -4 23 -6 45 -3 25 3
38 1 34 -5 -3 -6 -2 -10 4 -10 5 0 12 6 14 13 3 6 6 7 6 1 1 -6 20 -9 52 -6
28 2 56 -1 64 -8 18 -15 115 -23 115 -9 0 8 4 8 14 0 7 -6 21 -9 30 -5 9 3 16
2 16 -3 0 -5 17 -9 38 -10 45 0 90 -8 99 -16 3 -4 15 -2 25 4 14 8 23 8 31 0
14 -14 47 -14 47 0 0 8 5 7 15 -1 9 -8 41 -13 75 -13 33 1 60 -2 60 -6 0 -3
10 -12 21 -20 16 -10 23 -10 29 -1 5 8 11 7 23 -4 8 -9 23 -13 31 -10 9 3 16
1 16 -5 0 -6 7 -11 16 -11 8 0 12 5 9 10 -3 6 1 10 10 10 9 0 14 -4 11 -9 -3
-5 14 -12 39 -15 24 -4 47 -11 50 -17 8 -12 25 -12 25 2 0 5 -4 7 -10 4 -5 -3
-10 -1 -10 4 0 17 30 13 37 -5 3 -8 11 -13 18 -10 7 2 25 -2 40 -10 23 -12 30
-12 37 -2 6 10 8 10 8 -2 0 -11 13 -16 47 -18 25 -1 51 -8 57 -16 14 -17 103
-39 118 -30 7 5 9 1 5 -9 -6 -16 3 -21 31 -18 6 1 12 -3 12 -8 0 -6 7 -8 15
-4 9 3 21 -2 28 -10 7 -9 28 -17 47 -19 24 -2 36 -9 40 -23 4 -15 15 -21 45
-23 22 -2 42 -7 43 -13 2 -5 15 -9 28 -9 13 0 24 -4 24 -9 0 -5 11 -12 25 -15
14 -4 25 -11 25 -16 0 -6 8 -10 18 -10 9 0 23 -9 30 -21 11 -17 11 -20 0 -14
-7 3 -4 -1 7 -10 12 -9 21 -11 23 -5 2 5 11 10 20 10 15 0 15 -2 2 -10 -8 -5
-12 -10 -7 -11 18 -4 24 -6 52 -21 17 -8 36 -13 44 -10 8 2 11 0 7 -6 -7 -12
19 -23 38 -16 9 3 13 -1 13 -12 -1 -11 9 -20 28 -27 17 -5 37 -16 46 -23 20
-18 33 -18 26 0 -4 10 -1 13 9 9 16 -6 19 -23 4 -23 -17 0 -11 -20 8 -26 9 -4
32 -13 51 -21 28 -13 35 -13 42 -2 5 8 9 17 9 22 0 4 5 7 11 7 5 0 8 -4 4 -9
-3 -6 3 -14 12 -20 17 -10 17 -10 1 -11 -10 0 -18 6 -18 13 0 8 -4 7 -10 -3
-17 -26 -11 -38 25 -51 19 -7 35 -16 35 -20 0 -4 15 -10 34 -13 19 -4 40 -14
47 -23 12 -15 12 -16 -4 -10 -15 6 -16 4 -7 -13 6 -11 14 -20 18 -21 29 -3 57
-11 82 -24 16 -8 38 -15 49 -15 14 0 20 -6 18 -17 -1 -10 3 -19 8 -21 6 -2 17
-10 25 -17 8 -7 27 -18 43 -24 15 -6 26 -16 25 -23 -2 -6 6 -14 17 -16 11 -2
24 -10 28 -18 11 -19 41 -18 33 1 -3 10 1 15 13 15 11 0 21 6 24 13 2 6 8 8
13 4 5 -5 -3 -18 -18 -31 -33 -25 -35 -39 -10 -65 9 -10 27 -30 40 -44 13 -14
33 -27 45 -29 15 -2 21 -9 19 -21 -2 -9 5 -20 15 -24 10 -4 40 -29 66 -55 26
-26 52 -48 57 -48 5 0 17 -11 28 -25 11 -14 25 -25 31 -25 6 0 8 -7 5 -15 -4
-9 0 -15 10 -15 9 0 16 -4 16 -9 0 -5 48 -55 106 -112 169 -166 204 -203 204
-217 0 -7 5 -10 10 -7 6 3 10 -1 10 -9 0 -9 4 -16 10 -16 5 0 22 -19 37 -42
16 -22 35 -51 43 -64 8 -12 30 -34 48 -49 17 -15 32 -31 32 -37 0 -6 11 -19
25 -30 14 -11 25 -25 25 -31 0 -7 21 -36 48 -64 38 -43 53 -53 80 -53 21 0 32
5 32 15 0 7 8 19 18 24 14 9 15 12 3 20 -11 7 -9 10 9 13 13 1 26 9 28 17 4
11 -4 13 -37 7 -33 -5 -41 -3 -41 9 0 14 -12 19 -32 16 -10 -1 -10 23 -1 32 4
4 19 -4 33 -18 25 -24 28 -25 56 -10 l29 15 -32 0 c-17 0 -35 5 -38 10 -3 5
-1 10 5 10 6 0 9 12 8 28 -2 21 1 27 15 26 10 -1 16 3 14 10 -2 6 -12 10 -21
10 -10 -1 -16 6 -16 18 0 10 -5 16 -10 13 -6 -3 -14 5 -20 19 -7 20 -17 26
-39 26 -16 0 -36 6 -43 14 -9 9 -21 10 -37 4 -18 -6 -22 -13 -17 -31 6 -27
-16 -63 -32 -53 -17 10 -15 26 3 26 18 0 20 17 3 23 -8 3 0 17 22 38 19 19 34
38 32 43 -2 5 5 17 15 28 15 16 15 21 3 28 -8 5 -19 5 -26 0 -15 -14 -26 0
-13 17 9 10 4 13 -25 13 -29 0 -37 -4 -42 -24 -5 -22 -8 -23 -25 -13 -24 15
-24 27 0 27 24 0 36 29 16 36 -8 4 -15 12 -15 20 0 8 -10 14 -22 14 l-21 0 23
-25 c29 -30 21 -43 -13 -20 -33 21 -40 62 -16 86 25 25 24 26 -11 21 -29 -4
-43 12 -17 21 6 2 9 7 6 11 -3 4 -19 1 -35 -5 -23 -9 -25 -13 -11 -16 21 -5
22 -19 3 -26 -8 -3 -24 5 -36 18 -20 21 -21 25 -7 31 9 3 20 4 24 1 5 -3 17 2
28 10 20 15 20 15 -2 10 -28 -6 -54 20 -32 33 11 8 12 11 1 22 -11 11 -16 9
-28 -7 -8 -11 -12 -30 -9 -43 4 -15 1 -22 -9 -22 -8 0 -18 5 -21 10 -4 6 -11
8 -16 5 -5 -4 -9 -1 -9 5 0 6 7 13 15 16 8 4 15 15 15 25 0 10 5 19 10 19 15
0 12 17 -5 24 -8 3 -14 0 -12 -6 1 -7 -14 -12 -35 -13 -21 -1 -38 2 -38 6 0 4
-3 14 -6 23 -4 11 -1 16 10 16 9 0 16 -4 16 -10 0 -5 7 -10 15 -10 21 0 19 13
-4 30 -11 7 -18 17 -15 21 7 12 -7 59 -17 59 -5 0 -9 -9 -9 -20 0 -11 -4 -20
-9 -20 -13 0 -24 37 -15 52 5 10 4 10 -6 1 -7 -6 -13 -25 -14 -42 -1 -22 -4
-27 -13 -19 -9 7 -10 16 -3 28 14 27 12 32 -10 25 -17 -5 -20 -2 -20 25 0 23
-6 33 -25 42 -27 12 -33 33 -12 41 7 4 8 6 1 6 -6 1 -17 -6 -24 -14 -14 -17
-40 -20 -40 -4 0 6 9 13 20 16 11 3 20 9 20 14 0 14 -22 10 -42 -8 -13 -12
-22 -13 -29 -6 -8 8 -5 20 12 42 12 17 20 34 16 37 -7 7 -47 -55 -47 -73 0
-20 -18 -15 -25 6 -7 23 2 48 21 55 8 3 14 11 14 18 0 9 -3 9 -12 0 -29 -29
-86 -4 -65 29 18 29 -1 35 -28 9 -27 -26 -29 -25 -39 6 -4 15 -2 24 9 28 8 3
15 15 15 28 0 21 0 21 -15 2 -13 -17 -14 -17 -15 -2 0 21 -29 38 -63 38 -14 0
-28 7 -31 17 -6 15 -8 15 -16 3 -6 -9 -10 -10 -10 -3 0 6 5 15 10 18 16 10 3
22 -30 29 -19 3 -29 10 -25 16 5 8 11 8 20 0 9 -8 14 -7 18 4 4 10 1 13 -9 9
-8 -3 -14 1 -14 11 0 23 -17 20 -23 -4 -3 -11 -11 -20 -19 -20 -10 0 -9 3 2
10 12 8 12 10 1 10 -11 0 -11 3 -1 14 9 12 3 23 -34 60 -51 51 -60 56 -51 25
6 -18 5 -20 -14 -10 -12 7 -21 16 -21 22 0 6 -5 7 -11 3 -8 -5 -8 -9 1 -14 9
-6 7 -11 -8 -19 -20 -11 -21 -10 -15 21 3 18 10 36 16 39 5 4 5 9 -2 13 -6 4
-11 4 -11 -1 0 -4 -5 0 -11 9 -5 10 -16 15 -24 12 -10 -4 -15 0 -15 11 0 9 -4
14 -9 11 -11 -7 -2 -46 10 -46 5 0 9 -7 9 -15 0 -8 -5 -15 -11 -15 -5 0 -7 5
-4 10 3 6 -1 10 -10 10 -12 0 -15 6 -10 22 6 17 4 20 -10 15 -9 -4 -19 -7 -21
-7 -2 0 -4 -7 -4 -15 0 -8 -4 -15 -10 -15 -5 0 -10 7 -10 15 0 8 -8 15 -18 15
-30 0 -34 -13 -10 -27 22 -13 22 -14 1 -8 -15 4 -25 0 -32 -12 -10 -17 -10
-17 -10 2 1 35 15 60 35 60 14 0 20 8 21 30 2 27 2 28 -7 8 -13 -32 -26 -29
-34 8 -7 34 -27 59 -50 59 -8 0 -17 4 -20 9 -10 15 -53 18 -72 4 -10 -7 -25
-13 -33 -13 -14 1 -13 3 2 14 9 7 17 20 17 29 0 8 6 18 13 21 6 3 0 4 -15 1
-15 -3 -30 -1 -33 5 -3 5 -22 10 -41 10 -31 0 -39 8 -35 33 0 4 -4 7 -10 7 -6
0 -9 6 -7 12 3 7 -1 19 -9 26 -7 8 -11 17 -8 21 2 5 -7 6 -20 3 -15 -2 -25 0
-25 7 0 7 -5 9 -12 5 -7 -5 -9 -2 -6 8 4 8 2 21 -3 29 -6 9 -7 1 -4 -24 3 -29
1 -38 -9 -34 -7 3 -19 1 -26 -3 -11 -7 -11 -12 1 -27 13 -16 13 -17 -4 -4 -9
7 -16 21 -15 29 2 10 -6 18 -17 20 -25 5 -37 23 -24 38 14 18 2 37 -37 57 -43
21 -60 22 -68 1 -9 -24 -8 -24 18 -13 19 9 29 7 50 -6 17 -12 24 -21 18 -27
-7 -7 -18 -2 -31 11 -16 16 -26 19 -40 12 -25 -14 -45 6 -25 26 8 8 14 20 14
26 0 7 -7 4 -14 -5 -7 -10 -16 -15 -19 -12 -3 4 -15 -9 -26 -27 -13 -21 -21
-27 -21 -17 0 9 -3 24 -7 33 -5 14 -2 16 17 10 15 -5 20 -4 16 4 -4 6 0 11 8
11 9 0 16 4 16 10 0 5 -7 7 -15 4 -9 -4 -15 0 -15 7 -1 9 -8 5 -20 -10 -11
-13 -20 -20 -20 -16 0 5 -8 1 -19 -9 -16 -15 -19 -15 -31 -1 -7 8 -9 15 -4 15
5 0 -4 11 -20 25 -16 14 -33 25 -38 25 -5 0 -6 5 -3 10 10 16 -11 12 -25 -5
-14 -17 -34 -9 -26 11 6 17 -17 19 -45 4 -13 -7 -19 -7 -19 0 0 5 7 10 16 10
8 0 13 4 10 9 -10 15 -44 1 -41 -17 1 -10 0 -11 -2 -4 -3 6 -11 12 -19 12 -8
0 -13 -4 -9 -9 3 -5 2 -12 -3 -15 -5 -3 -9 1 -10 9 -1 8 -3 22 -4 30 -1 9 -7
14 -14 11 -6 -2 -22 6 -34 19 -25 27 -60 23 -55 -5 3 -14 -1 -17 -13 -13 -15
6 -15 5 -3 -13 14 -18 14 -18 -5 -1 -15 14 -16 19 -5 26 10 7 11 13 2 30 -13
24 -41 28 -41 6 0 -8 4 -15 8 -15 5 0 9 -6 9 -14 0 -7 -7 -13 -16 -11 -9 1
-15 10 -15 19 1 9 -3 16 -8 16 -6 0 -6 6 1 14 8 10 9 16 1 21 -5 3 -10 2 -10
-4 0 -6 -7 -8 -15 -5 -8 4 -15 1 -15 -5 0 -6 -4 -11 -10 -11 -5 0 -9 6 -7 13
1 8 -13 12 -42 13 -40 1 -42 0 -25 -13 10 -7 24 -11 30 -9 7 3 15 -2 18 -10 3
-9 9 -13 14 -10 4 2 9 -4 9 -15 2 -18 0 -18 -17 3 -14 17 -19 19 -20 8 0 -13
-1 -13 -10 0 -8 12 -12 12 -18 2 -5 -7 -13 -12 -18 -11 -21 4 -28 -2 -14 -11
13 -8 13 -10 -2 -11 -27 -2 -32 -4 -46 -13 -9 -5 -13 -3 -11 5 1 8 1 21 0 29
-1 12 -4 12 -12 -2 -13 -24 -24 -23 -52 6 -20 20 -22 26 -10 30 8 4 11 1 8 -5
-4 -6 2 -13 14 -16 12 -3 18 -10 14 -17 -4 -6 1 -5 11 3 10 8 14 21 11 30 -11
26 -13 61 -4 55 5 -3 9 -16 9 -30 0 -21 19 -36 21 -16 0 4 2 15 4 25 5 26 -48
44 -72 25 -14 -11 -7 -32 8 -23 5 4 9 1 9 -4 0 -6 -7 -11 -15 -11 -14 0 -20
12 -16 34 1 5 -7 6 -19 3 -11 -3 -27 1 -36 10 -16 17 -16 17 -32 -12 -10 -18
-11 -18 -12 -2 0 10 -5 15 -10 12 -6 -4 -9 -1 -8 6 2 6 -9 15 -24 20 -25 6
-28 5 -28 -17 0 -13 -2 -24 -5 -24 -14 0 -54 33 -50 40 3 5 1 11 -4 15 -5 3
-14 -3 -20 -12 -10 -17 -10 -17 -11 0 0 9 -6 17 -13 17 -15 0 -57 -37 -57 -50
0 -5 -10 -14 -22 -20 -22 -11 -22 -10 -4 4 11 9 14 16 8 16 -7 0 -12 5 -12 10
0 6 7 10 15 10 12 0 13 3 3 19 -7 11 -16 17 -20 15 -5 -3 -11 2 -14 10 -5 12
-10 13 -26 5 -11 -6 -35 -9 -53 -7 -19 2 -32 0 -29 -4 2 -4 -5 -12 -16 -18
-16 -9 -20 -8 -20 5 0 11 -7 14 -24 11 -19 -3 -23 -1 -19 11 5 13 2 15 -17 10
-13 -3 -31 -2 -40 3 -11 6 -26 4 -43 -5 -15 -7 -29 -10 -32 -5 -8 13 -45 8
-45 -7 0 -6 -4 -14 -9 -18 -6 -3 -6 6 -1 25 5 19 5 28 -1 25 -5 -4 -9 -1 -9 5
0 7 -6 10 -12 7 -7 -2 -19 3 -26 12 -9 10 -11 11 -6 2z m157 -75 c4 -10 1 -13
-8 -9 -8 3 -12 9 -9 14 7 12 11 11 17 -5z m-162 -30 c5 3 9 0 9 -5 0 -6 -7
-11 -15 -11 -8 0 -15 8 -14 18 0 10 3 12 6 4 2 -6 9 -10 14 -6z m55 5 c-4 -5
0 -11 6 -14 7 -3 3 -4 -8 -4 -21 1 -23 27 -2 27 5 0 7 -4 4 -9z m-1272 -29 c6
-9 -28 -30 -54 -33 -8 -1 -26 3 -40 9 -20 9 -21 11 -5 10 11 -2 26 1 34 6 8 5
16 4 22 -5 6 -11 9 -10 15 4 7 18 20 22 28 9z m-484 -33 c0 -5 4 -8 8 -5 5 3
9 -1 9 -9 0 -19 -14 -19 -33 -1 -18 19 -18 26 1 26 8 0 15 -5 15 -11z m240 1
c0 -5 -4 -10 -10 -10 -5 0 -10 5 -10 10 0 6 5 10 10 10 6 0 10 -4 10 -10z m37
-10 c-1 -11 -7 -20 -14 -20 -14 0 -18 22 -6 33 12 13 22 7 20 -13z m743 16 c0
-3 -4 -8 -10 -11 -5 -3 -10 -1 -10 4 0 6 5 11 10 11 6 0 10 -2 10 -4z m1366
-19 c7 3 11 10 8 17 -3 6 2 2 11 -9 18 -23 7 -30 -30 -21 -18 5 -23 11 -17 24
6 16 7 16 10 0 2 -10 9 -15 18 -11z m-1441 3 c3 -5 -1 -10 -9 -10 -9 0 -16 5
-16 10 0 6 4 10 9 10 6 0 13 -4 16 -10z m1605 -10 c0 -5 -4 -10 -10 -10 -5 0
-10 5 -10 10 0 6 5 10 10 10 6 0 10 -4 10 -10z m-2150 -10 c0 -5 -4 -10 -10
-10 -5 0 -10 5 -10 10 0 6 5 10 10 10 6 0 10 -4 10 -10z m2373 -13 c7 3 9 3 5
-2 -4 -4 -3 -14 3 -22 16 -18 4 -16 -15 3 -9 8 -16 21 -15 27 0 8 2 8 6 -1 2
-6 10 -9 16 -5z m-2403 -17 c0 -5 -5 -10 -11 -10 -5 0 -7 5 -4 10 3 6 8 10 11
10 2 0 4 -4 4 -10z m2315 -18 c-3 -3 -11 0 -18 7 -9 10 -8 11 6 5 10 -3 15 -9
12 -12z m77 -19 c-5 -10 -7 -25 -5 -33 4 -12 3 -13 -5 -1 -8 11 -9 28 -3 49 1
1 6 2 11 2 7 0 7 -6 2 -17z m148 13 c0 -3 -4 -8 -10 -11 -5 -3 -10 -1 -10 4 0
6 5 11 10 11 6 0 10 -2 10 -4z m28 -8 c-2 -7 5 -12 15 -10 9 2 17 -2 17 -8 0
-5 -5 -9 -11 -7 -6 1 -14 -4 -16 -11 -3 -7 -1 -12 4 -11 19 3 30 -2 30 -15 0
-12 -4 -12 -24 1 -12 8 -24 19 -24 24 -1 5 -2 15 -3 22 -2 13 3 27 10 27 2 0
3 -6 2 -12z m-58 -50 c0 -5 -7 -3 -15 6 -8 8 -15 18 -15 22 0 3 7 1 15 -6 8
-7 15 -17 15 -22z m225 -8 c3 -5 -1 -10 -10 -10 -9 0 -13 5 -10 10 3 6 8 10
10 10 2 0 7 -4 10 -10z m5 -56 c0 -8 -5 -12 -10 -9 -6 4 -8 11 -5 16 9 14 15
11 15 -7z m160 2 c0 -3 -4 -8 -10 -11 -5 -3 -10 -1 -10 4 0 6 5 11 10 11 6 0
10 -2 10 -4z m-135 -16 c3 -5 1 -10 -4 -10 -6 0 -11 5 -11 10 0 6 2 10 4 10 3
0 8 -4 11 -10z m197 -50 c-12 -11 -25 -20 -29 -20 -9 1 36 40 45 40 3 0 -4 -9
-16 -20z m-102 -20 c8 -5 13 -10 10 -11 -3 0 -12 -2 -21 -4 -9 -1 -16 4 -16
11 0 16 6 17 27 4z m370 -39 c0 -5 -7 -11 -15 -15 -15 -5 -20 5 -8 17 9 10 23
9 23 -2z m33 -10 c3 -13 1 -18 -9 -14 -7 2 -10 11 -7 19 7 19 10 18 16 -5z
m-31 -53 c-16 -16 -42 -19 -36 -4 2 6 14 13 26 13 16 2 18 -1 10 -9z m133 -48
c3 -6 -1 -7 -9 -4 -18 7 -21 14 -7 14 6 0 13 -4 16 -10z m5 -64 c0 -13 5 -27
10 -29 6 -3 5 -4 -2 -3 -14 3 -31 56 -17 56 5 0 9 -11 9 -24z m110 14 c0 -5
-7 -10 -15 -10 -8 0 -15 5 -15 10 0 6 7 10 15 10 8 0 15 -4 15 -10z m-50 -35
c0 -2 -7 -5 -15 -9 -9 -3 -15 0 -15 9 0 9 6 12 15 9 8 -4 15 -7 15 -9z m47 0
c0 -8 -4 -15 -9 -15 -10 0 -11 14 -1 23 9 10 10 9 10 -8z m63 -15 c0 -5 -5
-12 -12 -16 -7 -4 -8 -3 -4 4 5 8 -1 12 -16 12 -17 0 -20 2 -9 9 15 10 41 4
41 -9z m-120 -60 c0 -5 -2 -10 -4 -10 -3 0 -8 5 -11 10 -3 6 -1 10 4 10 6 0
11 -4 11 -10z m116 -15 c1 -8 -2 -17 -7 -21 -5 -3 -8 6 -7 20 2 26 10 26 14 1z
m204 -55 c0 -5 -4 -10 -10 -10 -5 0 -10 5 -10 10 0 6 5 10 10 10 6 0 10 -4 10
-10z m-50 -10 c0 -5 -2 -10 -4 -10 -3 0 -8 5 -11 10 -3 6 -1 10 4 10 6 0 11
-4 11 -10z m40 -20 c0 -5 -8 -10 -17 -10 -15 0 -16 2 -3 10 19 12 20 12 20 0z
m155 -70 c-6 -20 -7 -20 -20 -3 -10 13 -10 22 -3 31 16 18 32 -1 23 -28z
m-240 11 c3 -5 2 -12 -3 -15 -5 -3 -9 1 -9 9 0 17 3 19 12 6z m35 -11 c0 -5
-4 -10 -10 -10 -5 0 -10 5 -10 10 0 6 5 10 10 10 6 0 10 -4 10 -10z m28 -15
c-3 -3 -9 2 -12 12 -6 14 -5 15 5 6 7 -7 10 -15 7 -18z m121 -52 c2 -2 -3 -3
-11 -3 -9 0 -19 7 -22 16 -6 15 -4 15 11 3 10 -7 20 -15 22 -16z m6 -23 c3 -5
1 -10 -4 -10 -6 0 -11 5 -11 10 0 6 2 10 4 10 3 0 8 -4 11 -10z m229 -76 c17
-6 22 -29 8 -38 -4 -2 -17 7 -29 20 -22 24 -13 31 21 18z m-30 -93 c4 -5 -3
-7 -14 -4 -23 6 -26 13 -6 13 8 0 17 -4 20 -9z m156 -38 c0 -19 -13 -9 -16 12
-1 8 2 13 7 9 5 -3 9 -12 9 -21z m120 -98 c-6 -8 -9 -19 -5 -25 8 -13 -1 -13
-26 0 -16 9 -17 13 -7 25 7 8 21 14 32 15 15 0 16 -3 6 -15z m43 -24 c-4 -3
-11 -10 -15 -15 -5 -5 -8 0 -8 12 0 15 4 20 16 15 9 -3 12 -9 7 -12z m157
-311 c0 -5 -5 -10 -11 -10 -5 0 -7 5 -4 10 3 6 8 10 11 10 2 0 4 -4 4 -10z
m160 -10 c0 -5 -7 -10 -16 -10 -8 0 -12 5 -9 10 3 6 10 10 16 10 5 0 9 -4 9
-10z m-50 -101 c0 -5 -4 -9 -10 -9 -5 0 -10 7 -10 16 0 8 5 12 10 9 6 -3 10
-10 10 -16z m238 -48 c1 -1 -3 -7 -10 -15 -9 -10 -15 -11 -20 -2 -5 7 -11 8
-15 1 -5 -5 -19 -11 -32 -13 l-23 -2 23 19 c19 16 44 19 77 12z m-178 -11 c0
-5 -2 -10 -4 -10 -3 0 -8 5 -11 10 -3 6 -1 10 4 10 6 0 11 -4 11 -10z m80 -55
c0 -8 -4 -15 -10 -15 -5 0 -7 7 -4 15 4 8 8 15 10 15 2 0 4 -7 4 -15z m60 -1
c0 -9 -9 -18 -20 -21 -11 -3 -20 -10 -20 -15 0 -5 -5 -6 -10 -3 -12 8 20 54
38 55 6 0 12 -7 12 -16z m126 -44 c9 0 12 -5 9 -10 -4 -6 -15 -8 -26 -5 -11 4
-19 2 -19 -4 0 -6 -4 -11 -9 -11 -5 0 -7 9 -4 21 4 12 11 18 20 15 8 -3 21 -6
29 -6z m-63 -34 c3 -8 -1 -17 -9 -20 -9 -4 -14 1 -14 14 0 23 15 27 23 6z m82
-16 c-4 -14 -2 -20 8 -20 16 0 32 -29 21 -39 -4 -3 -9 0 -11 7 -3 6 -11 12
-19 12 -8 0 -14 7 -14 15 0 8 -4 15 -10 15 -5 0 -10 7 -10 15 0 8 9 15 21 15
16 0 19 -4 14 -20z m-55 -20 c0 -6 7 -10 15 -10 8 0 15 -9 15 -20 0 -19 -2
-19 -22 -6 -13 8 -35 12 -50 11 -21 -3 -28 1 -28 14 0 13 9 18 35 19 19 1 35
-3 35 -8z m10 -60 c10 0 16 -11 17 -30 2 -21 -2 -30 -12 -30 -8 0 -15 9 -15
19 0 11 -9 22 -19 26 -13 4 -18 12 -14 21 4 11 9 12 16 5 6 -6 18 -11 27 -11z"/>
<path d="M7658 2653 c7 -3 16 -2 19 1 4 3 -2 6 -13 5 -11 0 -14 -3 -6 -6z"/>
<path d="M7508 2643 c7 -3 16 -2 19 1 4 3 -2 6 -13 5 -11 0 -14 -3 -6 -6z"/>
<path d="M7060 2610 c0 -5 5 -10 10 -10 6 0 10 5 10 10 0 6 -4 10 -10 10 -5 0
-10 -4 -10 -10z"/>
<path d="M7300 2610 c0 -5 5 -10 10 -10 6 0 10 5 10 10 0 6 -4 10 -10 10 -5 0
-10 -4 -10 -10z"/>
<path d="M7025 2599 c-4 -6 -5 -13 -2 -16 7 -7 27 6 27 18 0 12 -17 12 -25 -2z"/>
<path d="M9112 2543 c-19 -27 -19 -59 -1 -47 5 3 9 -1 9 -8 0 -10 3 -9 9 2 13
19 3 33 -18 25 -12 -5 -13 -3 -4 6 6 6 17 8 25 3 35 -22 50 -5 24 29 -18 23
-21 22 -44 -10z"/>
<path d="M9447 2504 c6 -15 23 -19 23 -5 0 5 -7 11 -14 14 -10 4 -13 1 -9 -9z"/>
<path d="M9488 2493 c7 -3 16 -2 19 1 4 3 -2 6 -13 5 -11 0 -14 -3 -6 -6z"/>
<path d="M10040 2290 c0 -5 -6 -7 -14 -4 -8 3 -17 0 -21 -6 -4 -7 4 -10 24 -8
17 1 31 8 31 15 0 7 -4 13 -10 13 -5 0 -10 -4 -10 -10z"/>
<path d="M9671 2254 c0 -11 3 -14 6 -6 3 7 2 16 -1 19 -3 4 -6 -2 -5 -13z"/>
<path d="M10510 1970 c0 -20 1 -20 25 -4 14 9 25 18 25 20 0 2 -11 4 -25 4
-18 0 -25 -5 -25 -20z"/>
<path d="M10885 1711 c-6 -11 33 -26 43 -16 4 3 0 10 -8 15 -19 12 -27 12 -35
1z"/>
<path d="M11065 1551 c-3 -5 -1 -12 5 -16 5 -3 10 1 10 9 0 18 -6 21 -15 7z"/>
<path d="M11272 1369 c2 -7 10 -15 17 -17 8 -3 12 1 9 9 -2 7 -10 15 -17 17
-8 3 -12 -1 -9 -9z"/>
<path d="M11440 1241 c0 -5 5 -13 10 -16 6 -3 10 -2 10 4 0 5 -4 13 -10 16 -5
3 -10 2 -10 -4z"/>
<path d="M11635 1020 c3 -5 13 -10 21 -10 8 0 12 5 9 10 -3 6 -13 10 -21 10
-8 0 -12 -4 -9 -10z"/>
<path d="M11775 850 c3 -5 8 -10 11 -10 2 0 4 5 4 10 0 6 -5 10 -11 10 -5 0
-7 -4 -4 -10z"/>
<path d="M11810 465 c0 -8 5 -15 10 -15 6 0 10 7 10 15 0 8 -4 15 -10 15 -5 0
-10 -7 -10 -15z"/>
</g>
</svg>
